<svg width="1178" height="146" viewBox="0 0 1178 146" fill="none" xmlns="http://www.w3.org/2000/svg">
    <g clip-path="url(#clip0_1101_5126)">
        <path fill-rule="evenodd" clip-rule="evenodd"
            d="M776.655 73.0238C753.736 35.7349 723.4 12.4578 686.656 10.749C649.912 9.03265 623.449 28.7176 623.494 28.7176C614.676 8.83723 596.664 16.3024 588.821 20.8063C562.313 6.40598 554.005 28.7479 554.005 28.7479C498.754 1.12674 474.744 7.97696 456.05 19.8472C434.59 33.5172 398.967 76.0312 390.428 87.4381C389.347 88.8818 388.26 90.4133 387.137 91.9933C379.392 102.897 370.007 116.111 349.983 118.705C327.057 121.674 313.956 100.417 311.713 83.9826C309.47 67.5482 328.343 47.4304 347.672 52.2529C367.001 57.0754 362.059 73.0238 362.059 73.0238C359.584 63.8952 350.596 61.389 343.178 62.756C335.76 64.123 325.883 74.6262 333.069 87.8634C340.254 101.101 357.109 107.943 372.841 93.7947C388.574 79.6462 377.784 57.5083 377.784 57.5083C425.639 49.5188 412.18 6.1467 412.18 6.1467C390.824 36.2816 364.085 32.6287 364.085 32.6287C325.456 28.7479 309.5 48.8353 309.5 48.8353C310.397 18.9282 296.466 6.1467 296.466 6.1467C281.855 23.5001 283.433 48.8353 283.433 48.8353C283.433 48.8353 268.403 26.2569 235.592 31.5123C202.781 36.7677 179.182 4.99994 179.182 4.99994C171.548 54.9413 214.745 58.1614 214.745 58.1614C214.188 59.6673 213.617 61.063 213.074 62.3906C209.635 70.7977 207.311 76.4774 216.772 90.1721C227.554 105.786 242.389 101.64 249.47 98.7311C256.552 95.8224 269.862 80.4208 256.38 66.5533C242.898 52.6857 231.263 71.5125 231.263 71.5125C231.435 41.3851 266.16 48.6075 277.115 68.7785C288.069 88.9494 273.907 115.993 251.998 118.902C230.089 121.811 214.573 110.313 191.655 73.0238C168.736 35.7348 138.4 12.4577 101.656 10.749C64.9118 9.03262 38.4491 28.7175 38.4939 28.7175C27.031 2.8735 0.0298838 23.2419 0.0298838 23.2419C23.5988 22.2166 14.0501 68.6038 14.0501 68.6038C10.8498 123.368 52.9853 134 52.9853 134C5.82738 156.232 11.2346 189.803 14.9381 212.796C15.1691 214.23 15.3934 215.623 15.598 216.97C19.0825 239.905 0 243.9 0 243.9C29.5659 263.532 39.6305 238.538 39.6305 238.538C61.4273 254.282 86.5965 257.023 86.5965 257.023C86.5965 257.023 134.632 265.734 181.201 207.492C217.077 162.663 219.58 159.054 222.849 156.384C223.758 155.641 224.725 154.972 226.485 153.51C233.902 147.351 272.449 144.268 279.859 176.339C287.269 208.411 256.036 215.937 256.036 215.937C227.046 220.273 231.427 195.166 231.427 195.166C232.803 199.616 242.247 212.284 254.608 202.814C266.968 193.343 261.225 177.737 253.927 171.889C246.629 166.041 235.174 161.15 219.658 174.395C204.142 187.64 214.424 210.347 214.424 210.347C168.288 220.046 180.027 262.043 180.027 262.043C186.772 251.942 210.685 231.566 237.499 235.166C264.313 238.766 283.007 219.59 283.007 219.59C283.007 246.641 295.315 263 295.315 263C310.143 248.381 309.305 218.906 309.305 218.906C323.811 234.141 341.211 237.558 364.586 235.5C387.961 233.442 412.905 261.633 412.905 261.633C418.297 210.849 377.844 209.482 377.844 209.482C377.998 208.981 378.154 208.478 378.312 207.972C381.605 197.407 385.232 185.77 370.403 171.934C354.865 157.437 342.595 169.026 342.595 169.026C333.996 176.681 325.374 190.002 337.787 202.442C350.656 215.352 361.804 195.606 361.804 195.606C362.005 198.472 361.638 201.349 360.726 204.069C359.815 206.788 358.376 209.295 356.495 211.441C339.417 228.134 320.656 207.135 320.656 207.135C315.145 202.115 299.846 172.102 328.178 155.211C356.51 138.321 376.722 155.439 406.609 201.773C436.497 248.107 477.511 255.185 477.511 255.185C513.754 264.595 553.586 238.523 553.586 238.523C563.67 257.413 581.742 250.624 589.406 246.583C615.574 261.028 624.631 238.538 624.631 238.538C646.427 254.282 671.596 257.023 671.596 257.023C671.596 257.023 719.632 265.734 766.201 207.492C802.077 162.663 804.58 159.054 807.849 156.384C808.758 155.641 809.726 154.972 811.485 153.51C818.902 147.351 857.449 144.268 864.859 176.339C872.269 208.411 841.036 215.937 841.036 215.937C812.046 220.273 816.427 195.166 816.427 195.166C817.803 199.616 827.247 212.284 839.608 202.814C851.968 193.343 846.225 177.737 838.927 171.889C831.629 166.041 820.174 161.15 804.658 174.395C789.142 187.64 799.424 210.347 799.424 210.347C753.288 220.046 765.027 262.043 765.027 262.043C771.772 251.942 795.685 231.566 822.499 235.166C849.313 238.766 868.007 219.59 868.007 219.59C868.007 246.641 880.315 263 880.315 263C895.143 248.381 894.305 218.906 894.305 218.906C908.811 234.141 926.211 237.558 949.586 235.5C972.961 233.442 997.905 261.633 997.905 261.633C1003.3 210.849 962.844 209.482 962.844 209.482C962.998 208.981 963.154 208.478 963.312 207.972C966.605 197.407 970.232 185.77 955.403 171.934C939.865 157.437 927.595 169.026 927.595 169.026C918.996 176.681 910.374 190.002 922.787 202.442C935.656 215.352 946.804 195.606 946.804 195.606C947.005 198.472 946.638 201.35 945.726 204.069C944.815 206.789 943.376 209.295 941.495 211.441C924.417 228.134 905.656 207.135 905.656 207.135C900.145 202.115 884.846 172.102 913.178 155.211C941.51 138.321 961.722 155.439 991.609 201.773C1021.5 248.107 1062.51 255.185 1062.51 255.185C1098.75 264.595 1138.59 238.523 1138.59 238.523C1151.62 262.939 1178 244.454 1178 244.454C1155.39 239.89 1162.97 206.907 1162.97 206.907C1175.44 148.035 1123.53 134 1123.53 134C1172.52 118.705 1165.74 71.429 1162.37 49.9745C1159.01 28.5201 1177.97 23.2723 1177.97 23.2723C1148.17 4.09619 1139.01 28.7479 1139.01 28.7479C1083.75 1.12677 1059.74 7.97699 1041.05 19.8472C1019.59 33.5173 983.967 76.0312 975.428 87.4382C974.347 88.8819 973.26 90.4134 972.137 91.9934C964.392 102.897 955.007 116.111 934.983 118.705C912.057 121.674 898.956 100.417 896.713 83.9827C894.47 67.5482 913.343 47.4304 932.672 52.2529C952.001 57.0754 947.059 73.0238 947.059 73.0238C944.584 63.8952 935.596 61.389 928.178 62.7561C920.76 64.1231 910.883 74.6263 918.069 87.8634C925.254 101.101 942.109 107.943 957.841 93.7947C973.574 79.6462 962.784 57.5083 962.784 57.5083C1010.64 49.5189 997.18 6.14673 997.18 6.14673C975.824 36.2817 949.085 32.6287 949.085 32.6287C910.456 28.7479 894.5 48.8354 894.5 48.8354C895.397 18.9283 881.466 6.14673 881.466 6.14673C866.855 23.5002 868.433 48.8354 868.433 48.8354C868.433 48.8354 853.403 26.2569 820.592 31.5123C787.781 36.7677 764.182 4.99997 764.182 4.99997C756.548 54.9413 799.745 58.1614 799.745 58.1614C799.188 59.6674 798.617 61.063 798.074 62.3906C794.635 70.7977 792.311 76.4775 801.772 90.1722C812.554 105.786 827.389 101.64 834.471 98.7312C841.552 95.8225 854.862 80.4208 841.38 66.5533C827.898 52.6858 816.263 71.5125 816.263 71.5125C816.435 41.3852 851.16 48.6075 862.115 68.7785C873.069 88.9495 858.907 115.993 836.998 118.902C815.089 121.811 799.573 110.313 776.655 73.0238ZM588.117 242.836C571.557 234.805 577.97 206.907 577.97 206.907C590.443 148.035 538.527 134 538.527 134C587.519 118.705 580.737 71.4289 577.372 49.9745C574.729 33.1191 585.866 26.2668 590.763 24.1036C606.911 30.4152 599.05 68.6038 599.05 68.6038C595.85 123.368 637.985 134 637.985 134C590.827 156.232 596.235 189.803 599.938 212.796C600.169 214.23 600.393 215.623 600.598 216.97C603.18 233.965 593.371 240.56 588.117 242.836ZM1066.77 106.834C1066.77 106.834 1076.66 130.119 1091.26 134C1091.26 134 1075.44 141.306 1066.59 160.474C1066.59 160.474 1052.63 149.751 1049.91 141.306C1049.91 141.306 1033.06 138.929 1028.23 133.613C1034.71 129.048 1042.36 126.523 1050.25 126.352C1053.76 118.346 1059.5 111.56 1066.77 106.834ZM1062.4 238.963C1024.2 229.637 991.834 180.562 978.127 159.221C964.421 137.881 940.964 134 940.964 134C961.049 130.917 975.376 116.404 986.33 97.1439C997.285 77.8843 1029.14 47.3013 1029.14 47.3013C1053.63 20.599 1086.45 24.2596 1107.35 31.0946C1128.24 37.9297 1146.45 57.0906 1142.18 86.5344C1137.91 115.978 1116.12 121.454 1100.38 119.851C1084.65 118.249 1072.74 84.7041 1092.97 78.0817C1113.19 71.4593 1113.64 93.3694 1113.64 93.3694C1137.91 74.201 1120.15 56.8551 1120.15 56.8551C1076.84 23.5001 1065.1 87.666 1065.1 87.666C1053.86 74.8845 1063.42 44.1799 1063.42 44.1799C1028.24 52.5111 1041.27 98.3059 1041.27 98.3059C1019.87 83.9295 1001.08 86.6635 1001.08 86.6635C1006.02 98.5641 1030.24 114.368 1030.24 114.368C990.039 117.338 966.859 134 966.859 134C987.534 149.979 1029.56 152.941 1029.56 152.941C1008.43 168.031 1001.25 181.04 1001.25 181.04C1015.85 184.693 1040.8 169.398 1040.8 169.398C1025.54 215.504 1063.98 223.949 1063.98 223.949C1053.21 194.961 1064.42 181.04 1064.42 181.04C1067.57 210.279 1102.18 233.556 1119.26 211.418C1136.34 189.28 1113.19 173.985 1113.19 173.985C1113.42 185.605 1102.19 199.297 1088.7 185.377C1075.21 171.456 1086.67 151.164 1103.75 146.804C1120.83 142.445 1143.53 164.332 1143.08 194.915C1142.63 225.498 1100.6 248.289 1062.4 238.963ZM881.504 195.069C881.709 138.901 929.696 134 929.696 134C880.823 123.041 880.734 72.2036 880.734 72.2036C879.649 128.866 831.794 133.613 831.794 133.613C878.937 140.286 881.433 186.873 881.504 195.069ZM696.766 160.474C696.766 160.474 686.88 137.197 672.269 133.316C672.269 133.316 688.114 126.011 697.02 106.834C697.02 106.834 710.958 117.566 713.65 126.011C713.65 126.011 730.504 128.38 735.334 133.696C728.847 138.266 721.177 140.792 713.283 140.957C709.775 148.963 704.032 155.749 696.766 160.474ZM658.167 120.451C641.088 124.788 618.387 102.878 618.836 72.2872C619.284 41.7041 661.315 18.9435 699.517 28.2695C737.72 37.5955 770.082 86.6711 783.788 108.012C797.494 129.352 820.929 133.233 820.929 133.233C800.867 136.309 786.54 150.86 775.586 170.119C764.631 189.379 732.777 219.962 732.777 219.962C708.281 246.672 675.477 243.011 654.578 236.176C633.678 229.341 615.478 210.18 619.748 180.736C624.017 151.293 645.777 146.204 661.547 147.412C678.962 148.748 689.176 182.559 668.957 189.182C648.738 195.804 648.282 173.886 648.282 173.886C625.872 194.969 641.769 210.408 641.769 210.408C681.713 246.558 696.825 179.597 696.825 179.597C708.064 192.379 698.515 223.076 698.515 223.076C733.682 214.745 720.649 168.95 720.649 168.95C742.057 183.334 760.847 180.592 760.847 180.592C755.897 168.699 731.685 152.887 731.685 152.887C771.877 149.926 795.057 133.263 795.057 133.263C774.382 117.285 732.358 114.315 732.358 114.315C753.482 99.2248 760.675 86.2155 760.675 86.2155C746.065 82.5625 721.12 97.8502 721.12 97.8502C736.374 51.744 697.94 43.299 697.94 43.299C708.707 72.2872 697.491 86.2155 697.491 86.2155C694.35 56.9843 659.767 33.692 642.659 55.8375C625.55 77.983 648.73 93.2707 648.73 93.2707C648.543 81.6436 659.73 67.9583 673.219 81.879C686.708 95.7997 675.245 116.115 658.167 120.451ZM481.765 106.834C481.765 106.834 491.658 130.119 506.261 134C506.261 134 490.439 141.306 481.586 160.474C481.586 160.474 467.625 149.751 464.911 141.306C464.911 141.306 448.057 138.929 443.226 133.613C449.705 129.048 457.364 126.523 465.248 126.352C468.756 118.346 474.499 111.56 481.765 106.834ZM477.398 238.963C439.196 229.637 406.834 180.562 393.127 159.221C379.421 137.881 355.965 134 355.965 134C376.049 130.917 390.376 116.404 401.33 97.1439C412.285 77.8843 444.139 47.3013 444.139 47.3013C468.635 20.599 501.446 24.2596 522.345 31.0946C543.245 37.9297 561.453 57.0905 557.183 86.5344C552.913 115.978 531.117 121.454 515.384 119.851C499.651 118.249 487.74 84.7041 507.966 78.0817C528.193 71.4593 528.641 93.3694 528.641 93.3694C552.913 74.2009 535.154 56.8551 535.154 56.8551C491.845 23.5001 480.098 87.666 480.098 87.666C468.859 74.8844 478.415 44.1799 478.415 44.1799C443.241 52.5111 456.275 98.3058 456.275 98.3058C434.874 83.9295 416.076 86.6635 416.076 86.6635C421.018 98.5641 445.238 114.368 445.238 114.368C405.039 117.338 381.859 134 381.859 134C402.534 149.979 444.557 152.941 444.557 152.941C423.434 168.031 416.248 181.04 416.248 181.04C430.851 184.693 455.796 169.398 455.796 169.398C440.542 215.504 478.976 223.949 478.976 223.949C468.209 194.961 479.425 181.04 479.425 181.04C482.573 210.279 517.179 233.556 534.257 211.418C551.336 189.28 528.193 173.985 528.193 173.985C528.417 185.605 517.186 199.297 503.697 185.377C490.207 171.456 501.67 151.163 518.749 146.804C535.827 142.445 558.529 164.332 558.08 194.915C557.632 225.498 515.601 248.289 477.398 238.963ZM296.504 195.069C296.709 138.901 344.696 134 344.696 134C295.823 123.041 295.734 72.2036 295.734 72.2036C294.649 128.866 246.794 133.613 246.794 133.613C293.938 140.287 296.433 186.873 296.504 195.069ZM111.766 160.474C111.766 160.474 101.88 137.197 87.2694 133.316C87.2694 133.316 103.114 126.011 112.02 106.834C112.02 106.834 125.958 117.565 128.65 126.011C128.65 126.011 145.504 128.38 150.334 133.696C143.847 138.266 136.177 140.792 128.283 140.957C124.775 148.963 119.032 155.749 111.766 160.474ZM73.1669 120.451C56.0884 124.788 33.3869 102.878 33.8355 72.2871C34.2841 41.7041 76.3149 18.9434 114.517 28.2695C152.72 37.5955 185.082 86.6711 198.788 108.012C212.494 129.352 235.929 133.233 235.929 133.233C215.867 136.309 201.54 150.86 190.586 170.119C179.631 189.379 147.777 219.962 147.777 219.962C123.281 246.672 90.4773 243.011 69.5778 236.176C48.6783 229.341 30.4781 210.18 34.7477 180.736C39.0174 151.293 60.7768 146.204 76.5468 147.412C93.9618 148.748 104.176 182.559 83.9569 189.182C63.7378 195.804 63.2818 173.886 63.2818 173.886C40.8718 194.969 56.7689 210.408 56.7689 210.408C96.7135 246.558 111.825 179.597 111.825 179.597C123.064 192.379 113.515 223.076 113.515 223.076C148.682 214.745 135.649 168.95 135.649 168.95C157.057 183.334 175.847 180.592 175.847 180.592C170.897 168.699 146.685 152.887 146.685 152.887C186.877 149.926 210.057 133.263 210.057 133.263C189.382 117.284 147.358 114.315 147.358 114.315C168.482 99.2248 175.675 86.2154 175.675 86.2154C161.064 82.5625 136.12 97.8502 136.12 97.8502C151.374 51.744 112.94 43.299 112.94 43.299C123.707 72.2871 112.491 86.2154 112.491 86.2154C109.35 56.9842 74.7671 33.6919 57.6587 55.8375C40.5503 77.983 63.7304 93.2707 63.7304 93.2707C63.5434 81.6435 74.7297 67.9583 88.2191 81.879C101.708 95.7997 90.2454 116.115 73.1669 120.451Z"
            fill="url(#paint0_linear_1101_5126)" />
    </g>
    <defs>
        <linearGradient id="paint0_linear_1101_5126" x1="589" y1="97.5" x2="589" y2="4.64237"
            gradientUnits="userSpaceOnUse">
            <stop stop-color="#13A324" stop-opacity="0.26" />
            <stop offset="1" stop-color="#004B16" stop-opacity="0.12" />
        </linearGradient>
        <clipPath id="clip0_1101_5126">
            <rect width="1178" height="146" fill="white" transform="matrix(1 0 0 -1 0 146)" />
        </clipPath>
    </defs>
</svg>