<svg width="1181" height="140" viewBox="0 0 1181 140" fill="none" xmlns="http://www.w3.org/2000/svg">
    <g clip-path="url(#clip0_1101_5121)">
        <path fill-rule="evenodd" clip-rule="evenodd"
            d="M779.655 40.9762C756.736 78.2651 726.4 101.542 689.656 103.251C652.912 104.967 626.449 85.2824 626.494 85.2824C617.676 105.163 599.664 97.6976 591.821 93.1937C565.313 107.594 557.005 85.2521 557.005 85.2521C501.754 112.873 477.744 106.023 459.05 94.1528C437.59 80.4828 401.967 37.9688 393.428 26.5619C392.347 25.1182 391.26 23.5867 390.137 22.0067C382.392 11.1026 373.007 -2.11102 352.983 -4.70465C330.057 -7.6741 316.956 13.5829 314.713 30.0174C312.47 46.4518 331.343 66.5696 350.672 61.7471C370.001 56.9246 365.059 40.9762 365.059 40.9762C362.584 50.1048 353.596 52.611 346.178 51.244C338.76 49.877 328.883 39.3738 336.069 26.1366C343.254 12.8994 360.109 6.05675 375.841 20.2053C391.574 34.3538 380.784 56.4917 380.784 56.4917C428.639 64.4812 415.18 107.853 415.18 107.853C393.824 77.7184 367.085 81.3713 367.085 81.3713C328.456 85.2521 312.5 65.1647 312.5 65.1647C313.397 95.0718 299.466 107.853 299.466 107.853C284.855 90.4999 286.433 65.1647 286.433 65.1647C286.433 65.1647 271.403 87.7431 238.592 82.4877C205.781 77.2323 182.182 109 182.182 109C174.548 59.0587 217.745 55.8386 217.745 55.8386C217.188 54.3327 216.617 52.937 216.074 51.6094C212.635 43.2023 210.311 37.5226 219.772 23.8279C230.554 8.21358 245.389 12.3602 252.47 15.2689C259.552 18.1776 272.862 33.5792 259.38 47.4467C245.898 61.3143 234.263 42.4875 234.263 42.4875C234.435 72.6149 269.16 65.3925 280.115 45.2215C291.069 25.0506 276.907 -1.99341 254.998 -4.9021C233.089 -7.81079 217.573 3.68726 194.655 40.9762C171.736 78.2652 141.4 101.542 104.656 103.251C67.9118 104.967 41.4491 85.2825 41.4939 85.2825C30.031 111.126 3.02988 90.7581 3.02988 90.7581C26.5988 91.7834 17.0501 45.3962 17.0501 45.3962C13.8498 -9.36768 55.9853 -20 55.9853 -20C8.82738 -42.2323 14.2346 -75.8029 17.9381 -98.7964C18.1691 -100.23 18.3934 -101.623 18.598 -102.97C22.0825 -125.905 3 -129.9 3 -129.9C32.5659 -149.532 42.6305 -124.538 42.6305 -124.538C64.4273 -140.282 89.5965 -143.023 89.5965 -143.023C89.5965 -143.023 137.632 -151.734 184.201 -93.4918C220.077 -48.6632 222.58 -45.0543 225.849 -42.3835C226.758 -41.6414 227.725 -40.9717 229.485 -39.5102C236.902 -33.3511 275.449 -30.2677 282.859 -62.3392C290.269 -94.4108 259.036 -101.937 259.036 -101.937C230.046 -106.273 234.427 -81.166 234.427 -81.166C235.803 -85.6164 245.247 -98.284 257.608 -88.8136C269.968 -79.3433 264.225 -63.7366 256.927 -57.8889C249.629 -52.0411 238.174 -47.1503 222.658 -60.3951C207.142 -73.6398 217.424 -96.3474 217.424 -96.3474C171.288 -106.046 183.027 -148.043 183.027 -148.043C189.772 -137.942 213.685 -117.566 240.499 -121.166C267.313 -124.766 286.007 -105.59 286.007 -105.59C286.007 -132.641 298.315 -149 298.315 -149C313.143 -134.381 312.305 -104.906 312.305 -104.906C326.811 -120.141 344.211 -123.558 367.586 -121.5C390.961 -119.442 415.905 -147.633 415.905 -147.633C421.297 -96.8486 380.844 -95.4816 380.844 -95.4816C380.998 -94.9809 381.154 -94.4779 381.312 -93.9724C384.605 -83.4068 388.232 -71.7704 373.403 -57.9344C357.865 -43.4365 345.595 -55.0257 345.595 -55.0257C336.996 -62.681 328.374 -76.0017 340.787 -88.4415C353.656 -101.352 364.804 -81.6065 364.804 -81.6065C365.005 -84.4721 364.638 -87.3495 363.726 -90.069C362.815 -92.7885 361.376 -95.2951 359.495 -97.441C342.417 -114.134 323.656 -93.1349 323.656 -93.1349C318.145 -88.1149 302.846 -58.1015 331.178 -41.2114C359.51 -24.3212 379.722 -41.4392 409.609 -87.7732C439.497 -134.107 480.511 -141.185 480.511 -141.185C516.754 -150.595 556.586 -124.523 556.586 -124.523C566.67 -143.413 584.742 -136.624 592.406 -132.583C618.574 -147.028 627.631 -124.538 627.631 -124.538C649.427 -140.282 674.596 -143.023 674.596 -143.023C674.596 -143.023 722.632 -151.734 769.201 -93.4919C805.077 -48.6633 807.58 -45.0543 810.849 -42.3836C811.758 -41.6414 812.726 -40.9717 814.485 -39.5102C821.902 -33.3511 860.449 -30.2677 867.859 -62.3393C875.269 -94.4108 844.036 -101.937 844.036 -101.937C815.046 -106.273 819.427 -81.166 819.427 -81.166C820.803 -85.6164 830.247 -98.284 842.608 -88.8137C854.968 -79.3433 849.225 -63.7367 841.927 -57.8889C834.629 -52.0411 823.174 -47.1503 807.658 -60.3951C792.142 -73.6399 802.424 -96.3474 802.424 -96.3474C756.288 -106.046 768.027 -148.043 768.027 -148.043C774.772 -137.942 798.685 -117.566 825.499 -121.166C852.313 -124.766 871.007 -105.59 871.007 -105.59C871.007 -132.641 883.315 -149 883.315 -149C898.143 -134.381 897.305 -104.906 897.305 -104.906C911.811 -120.141 929.211 -123.558 952.586 -121.5C975.961 -119.442 1000.91 -147.633 1000.91 -147.633C1006.3 -96.8486 965.844 -95.4816 965.844 -95.4816C965.998 -94.9809 966.154 -94.4779 966.312 -93.9724C969.605 -83.4068 973.232 -71.7704 958.403 -57.9345C942.865 -43.4366 930.595 -55.0258 930.595 -55.0258C921.996 -62.681 913.374 -76.0018 925.787 -88.4415C938.656 -101.352 949.804 -81.6065 949.804 -81.6065C950.005 -84.4721 949.638 -87.3495 948.726 -90.069C947.815 -92.7885 946.376 -95.2951 944.495 -97.441C927.417 -114.134 908.656 -93.1349 908.656 -93.1349C903.145 -88.115 887.846 -58.1015 916.178 -41.2114C944.51 -24.3213 964.722 -41.4392 994.609 -87.7732C1024.5 -134.107 1065.51 -141.185 1065.51 -141.185C1101.75 -150.595 1141.59 -124.523 1141.59 -124.523C1154.62 -148.939 1181 -130.454 1181 -130.454C1158.39 -125.89 1165.97 -92.9071 1165.97 -92.9071C1178.44 -34.0346 1126.53 -20 1126.53 -20C1175.52 -4.70467 1168.74 42.571 1165.37 64.0255C1162.01 85.4799 1180.97 90.7277 1180.97 90.7277C1151.17 109.904 1142.01 85.2521 1142.01 85.2521C1086.75 112.873 1062.74 106.023 1044.05 94.1528C1022.59 80.4827 986.967 37.9688 978.428 26.5618C977.347 25.1181 976.26 23.5866 975.137 22.0066C967.392 11.1026 958.007 -2.11105 937.983 -4.70468C915.057 -7.67412 901.956 13.5829 899.713 30.0173C897.47 46.4518 916.343 66.5696 935.672 61.7471C955.001 56.9246 950.059 40.9762 950.059 40.9762C947.584 50.1048 938.596 52.611 931.178 51.2439C923.76 49.8769 913.883 39.3737 921.069 26.1366C928.254 12.8994 945.109 6.05672 960.841 20.2053C976.574 34.3538 965.784 56.4917 965.784 56.4917C1013.64 64.4811 1000.18 107.853 1000.18 107.853C978.824 77.7183 952.085 81.3713 952.085 81.3713C913.456 85.2521 897.5 65.1646 897.5 65.1646C898.397 95.0717 884.466 107.853 884.466 107.853C869.855 90.4998 871.433 65.1646 871.433 65.1646C871.433 65.1646 856.403 87.7431 823.592 82.4877C790.781 77.2323 767.182 109 767.182 109C759.548 59.0587 802.745 55.8386 802.745 55.8386C802.188 54.3326 801.617 52.937 801.074 51.6094C797.635 43.2023 795.311 37.5225 804.772 23.8278C815.554 8.21355 830.389 12.3601 837.471 15.2688C844.552 18.1775 857.862 33.5792 844.38 47.4467C830.898 61.3142 819.263 42.4875 819.263 42.4875C819.435 72.6148 854.16 65.3925 865.115 45.2215C876.069 25.0505 861.907 -1.99344 839.998 -4.90213C818.089 -7.81082 802.573 3.68723 779.655 40.9762ZM591.117 -128.836C574.557 -120.805 580.97 -92.9071 580.97 -92.9071C593.443 -34.0346 541.527 -19.9999 541.527 -19.9999C590.519 -4.70464 583.737 42.5711 580.372 64.0255C577.729 80.8809 588.866 87.7332 593.763 89.8964C609.911 83.5848 602.05 45.3962 602.05 45.3962C598.85 -9.36771 640.985 -20 640.985 -20C593.827 -42.2323 599.235 -75.8029 602.938 -98.7964C603.169 -100.23 603.393 -101.623 603.598 -102.97C606.18 -119.965 596.371 -126.56 591.117 -128.836ZM1069.77 7.16553C1069.77 7.16553 1079.66 -16.1192 1094.26 -20C1094.26 -20 1078.44 -27.3059 1069.59 -46.4744C1069.59 -46.4744 1055.63 -35.7509 1052.91 -27.3059C1052.91 -27.3059 1036.06 -24.9288 1031.23 -19.6127C1037.71 -15.0483 1045.36 -12.5231 1053.25 -12.3523C1056.76 -4.34579 1062.5 2.44014 1069.77 7.16553ZM1065.4 -124.963C1027.2 -115.637 994.834 -66.5618 981.127 -45.2213C967.421 -23.8808 943.964 -20 943.964 -20C964.049 -16.9166 978.376 -2.40355 989.33 16.8561C1000.28 36.1157 1032.14 66.6987 1032.14 66.6987C1056.63 93.401 1089.45 89.7404 1110.35 82.9054C1131.24 76.0703 1149.45 56.9094 1145.18 27.4656C1140.91 -1.97824 1119.12 -7.45387 1103.38 -5.85143C1087.65 -4.24899 1075.74 29.2959 1095.97 35.9183C1116.19 42.5407 1116.64 20.6306 1116.64 20.6306C1140.91 39.799 1123.15 57.1449 1123.15 57.1449C1079.84 90.4999 1068.1 26.334 1068.1 26.334C1056.86 39.1155 1066.42 69.8201 1066.42 69.8201C1031.24 61.4889 1044.27 15.6941 1044.27 15.6941C1022.87 30.0705 1004.08 27.3365 1004.08 27.3365C1009.02 15.4359 1033.24 -0.36821 1033.24 -0.36821C993.039 -3.33766 969.859 -20 969.859 -20C990.534 -35.9788 1032.56 -38.9406 1032.56 -38.9406C1011.43 -54.0309 1004.25 -67.0403 1004.25 -67.0403C1018.85 -70.6932 1043.8 -55.3979 1043.8 -55.3979C1028.54 -101.504 1066.98 -109.949 1066.98 -109.949C1056.21 -80.961 1067.42 -67.0403 1067.42 -67.0403C1070.57 -96.279 1105.18 -119.556 1122.26 -97.4182C1139.34 -75.2803 1116.19 -59.985 1116.19 -59.985C1116.42 -71.6045 1105.19 -85.2974 1091.7 -71.3767C1078.21 -57.456 1089.67 -37.1635 1106.75 -32.8043C1123.83 -28.445 1146.53 -50.3324 1146.08 -80.9154C1145.63 -111.498 1103.6 -134.289 1065.4 -124.963ZM884.504 -81.0686C884.709 -24.9009 932.696 -20 932.696 -20C883.823 -9.04114 883.734 41.7964 883.734 41.7964C882.649 -14.8661 834.794 -19.6127 834.794 -19.6127C881.937 -26.2865 884.433 -72.8725 884.504 -81.0686ZM699.766 -46.4744C699.766 -46.4744 689.88 -23.1973 675.269 -19.3165C675.269 -19.3165 691.114 -12.0106 700.02 7.16551C700.02 7.16551 713.958 -3.56551 716.65 -12.0106C716.65 -12.0106 733.504 -14.3801 738.334 -19.6962C731.847 -24.2662 724.177 -26.7917 716.283 -26.9565C712.775 -34.9631 707.032 -41.749 699.766 -46.4744ZM661.167 -6.45142C644.088 -10.7879 621.387 11.1222 621.836 41.7128C622.284 72.2959 664.315 95.0565 702.517 85.7305C740.72 76.4045 773.082 27.3289 786.788 5.98836C800.494 -15.3522 823.929 -19.2329 823.929 -19.2329C803.867 -22.3087 789.54 -36.8597 778.586 -56.1194C767.631 -75.379 735.777 -105.962 735.777 -105.962C711.281 -132.672 678.477 -129.011 657.578 -122.176C636.678 -115.341 618.478 -96.1803 622.748 -66.7365C627.017 -37.2926 648.777 -32.2043 664.547 -33.4119C681.962 -34.7485 692.176 -68.5592 671.957 -75.1816C651.738 -81.804 651.282 -59.8863 651.282 -59.8863C628.872 -80.9686 644.769 -96.4082 644.769 -96.4082C684.713 -132.558 699.825 -65.5973 699.825 -65.5973C711.064 -78.3788 701.515 -109.076 701.515 -109.076C736.682 -100.745 723.649 -54.9498 723.649 -54.9498C745.057 -69.3338 763.847 -66.5922 763.847 -66.5922C758.897 -54.6992 734.685 -38.8875 734.685 -38.8875C774.877 -35.9256 798.057 -19.2633 798.057 -19.2633C777.382 -3.28452 735.358 -0.315063 735.358 -0.315063C756.482 14.7752 763.675 27.7845 763.675 27.7845C749.065 31.4375 724.12 16.1498 724.12 16.1498C739.374 62.256 700.94 70.701 700.94 70.701C711.707 41.7128 700.491 27.7845 700.491 27.7845C697.35 57.0157 662.767 80.308 645.659 58.1625C628.55 36.017 651.73 20.7293 651.73 20.7293C651.543 32.3564 662.73 46.0417 676.219 32.121C689.708 18.2003 678.245 -2.11497 661.167 -6.45142ZM484.765 7.16554C484.765 7.16554 494.658 -16.1192 509.261 -19.9999C509.261 -19.9999 493.439 -27.3058 484.586 -46.4743C484.586 -46.4743 470.625 -35.7509 467.911 -27.3058C467.911 -27.3058 451.057 -24.9288 446.226 -19.6126C452.705 -15.0483 460.364 -12.5231 468.248 -12.3523C471.756 -4.34578 477.499 2.44016 484.765 7.16554ZM480.398 -124.963C442.196 -115.637 409.834 -66.5618 396.127 -45.2213C382.421 -23.8807 358.965 -20 358.965 -20C379.049 -16.9166 393.376 -2.40352 404.33 16.8561C415.285 36.1157 447.139 66.6987 447.139 66.6987C471.635 93.401 504.446 89.7404 525.345 82.9054C546.245 76.0703 564.453 56.9095 560.183 27.4656C555.913 -1.97823 534.117 -7.45384 518.384 -5.85141C502.651 -4.24896 490.74 29.2959 510.966 35.9183C531.193 42.5407 531.641 20.6306 531.641 20.6306C555.913 39.7991 538.154 57.1449 538.154 57.1449C494.845 90.4999 483.098 26.334 483.098 26.334C471.859 39.1156 481.415 69.8201 481.415 69.8201C446.241 61.4889 459.275 15.6942 459.275 15.6942C437.874 30.0705 419.076 27.3365 419.076 27.3365C424.018 15.4359 448.238 -0.368179 448.238 -0.368179C408.039 -3.33763 384.859 -20 384.859 -20C405.534 -35.9788 447.557 -38.9406 447.557 -38.9406C426.434 -54.0309 419.248 -67.0402 419.248 -67.0402C433.851 -70.6932 458.796 -55.3979 458.796 -55.3979C443.542 -101.504 481.976 -109.949 481.976 -109.949C471.209 -80.9609 482.425 -67.0402 482.425 -67.0402C485.573 -96.279 520.179 -119.556 537.257 -97.4182C554.336 -75.2802 531.193 -59.9849 531.193 -59.9849C531.417 -71.6045 520.186 -85.2974 506.697 -71.3767C493.207 -57.456 504.67 -37.1635 521.749 -32.8043C538.827 -28.445 561.529 -50.3323 561.08 -80.9154C560.632 -111.498 518.601 -134.289 480.398 -124.963ZM299.504 -81.0688C299.709 -24.9008 347.696 -20 347.696 -20C298.823 -9.04111 298.734 41.7964 298.734 41.7964C297.649 -14.8661 249.794 -19.6126 249.794 -19.6126C296.938 -26.2865 299.433 -72.8735 299.504 -81.0688ZM114.766 -46.4744C114.766 -46.4744 104.88 -23.1973 90.2694 -19.3165C90.2694 -19.3165 106.114 -12.0106 115.02 7.16553C115.02 7.16553 128.958 -3.56548 131.65 -12.0106C131.65 -12.0106 148.504 -14.3801 153.334 -19.6962C146.847 -24.2662 139.177 -26.7917 131.283 -26.9565C127.775 -34.963 122.032 -41.749 114.766 -46.4744ZM76.1669 -6.4514C59.0884 -10.7879 36.3869 11.1223 36.8355 41.7129C37.2841 72.2959 79.3149 95.0566 117.517 85.7305C155.72 76.4045 188.082 27.3289 201.788 5.98839C215.494 -15.3521 238.929 -19.2329 238.929 -19.2329C218.867 -22.3087 204.54 -36.8597 193.586 -56.1194C182.631 -75.379 150.777 -105.962 150.777 -105.962C126.281 -132.672 93.4773 -129.011 72.5778 -122.176C51.6783 -115.341 33.4781 -96.1803 37.7477 -66.7365C42.0174 -37.2926 63.7768 -32.2043 79.5468 -33.4118C96.9618 -34.7485 107.176 -68.5591 86.9569 -75.1815C66.7378 -81.8039 66.2818 -59.8862 66.2818 -59.8862C43.8718 -80.9685 59.7689 -96.4081 59.7689 -96.4081C99.7135 -132.558 114.825 -65.5973 114.825 -65.5973C126.064 -78.3788 116.515 -109.076 116.515 -109.076C151.682 -100.745 138.649 -54.9498 138.649 -54.9498C160.057 -69.3338 178.847 -66.5922 178.847 -66.5922C173.897 -54.6992 149.685 -38.8875 149.685 -38.8875C189.877 -35.9256 213.057 -19.2633 213.057 -19.2633C192.382 -3.28448 150.358 -0.315048 150.358 -0.315048C171.482 14.7752 178.675 27.7846 178.675 27.7846C164.064 31.4375 139.12 16.1498 139.12 16.1498C154.374 62.256 115.94 70.701 115.94 70.701C126.707 41.7129 115.491 27.7846 115.491 27.7846C112.35 57.0158 77.7671 80.3081 60.6587 58.1625C43.5503 36.017 66.7304 20.7293 66.7304 20.7293C66.5434 32.3565 77.7297 46.0417 91.2191 32.121C104.708 18.2003 93.2454 -2.11494 76.1669 -6.4514Z"
            fill="url(#paint0_linear_1101_5121)" />
    </g>
    <defs>
        <linearGradient id="paint0_linear_1101_5121" x1="592" y1="16.5" x2="592" y2="109.358"
            gradientUnits="userSpaceOnUse">
            <stop stop-color="#13A324" stop-opacity="0.26" />
            <stop offset="1" stop-color="#004B16" stop-opacity="0.12" />
        </linearGradient>
        <clipPath id="clip0_1101_5121">
            <rect width="1181" height="140" fill="white" />
        </clipPath>
    </defs>
</svg>