<svg viewBox="0 0 28 21" fill="none" xmlns="http://www.w3.org/2000/svg">
    <path
        d="M28 17.4231C28 18.2391 27.6722 19.0218 27.0888 19.5988C26.5053 20.1758 25.714 20.5 24.8889 20.5H3.11111C2.28599 20.5 1.49467 20.1758 0.911223 19.5988C0.327777 19.0218 0 18.2391 0 17.4231V3.57692C0 2.76087 0.327777 1.97824 0.911223 1.40121C1.49467 0.824175 2.28599 0.5 3.11111 0.5H24.8889C25.714 0.5 26.5053 0.824175 27.0888 1.40121C27.6722 1.97824 28 2.76087 28 3.57692V17.4231Z"
        fill="#00AFCA" />
    <path
        d="M14.805 11.56C16.0357 11.56 17.0333 10.5733 17.0333 9.35619C17.0333 8.13904 16.0357 7.15234 14.805 7.15234C13.5743 7.15234 12.5767 8.13904 12.5767 9.35619C12.5767 10.5733 13.5743 11.56 14.805 11.56Z"
        fill="#FFCC4D" />
    <path
        d="M14.8065 6.98618C14.9387 6.98464 14.9869 6.90233 14.9869 6.80464C14.9869 6.67387 14.8065 5.65387 14.8065 5.65387C14.8065 5.65387 14.6229 6.67387 14.6229 6.80464C14.6229 6.90233 14.6727 6.98618 14.8065 6.98618ZM14.8065 11.7385C14.6727 11.7393 14.6229 11.8216 14.6229 11.9193C14.6229 12.0508 14.8065 13.0569 14.8065 13.0569C14.8065 13.0569 14.9869 12.05 14.9869 11.9193C14.9877 11.8223 14.9387 11.7385 14.8065 11.7385ZM14.1835 11.6454C14.0551 11.6131 13.9875 11.68 13.9618 11.7746C13.9276 11.9008 13.835 12.9331 13.835 12.9331C13.835 12.9331 14.2791 11.9939 14.3134 11.8677C14.3398 11.7731 14.3126 11.6793 14.1835 11.6454ZM15.4279 7.05464C15.557 7.08849 15.627 7.02079 15.6527 6.92695C15.6869 6.80002 15.7725 5.78079 15.7725 5.78079C15.7725 5.78079 15.3354 6.70618 15.3004 6.83387C15.2747 6.92772 15.2996 7.02079 15.4279 7.05464ZM13.6056 11.4069C13.4897 11.3431 13.4065 11.39 13.3575 11.4754C13.2914 11.5885 12.932 12.5616 12.932 12.5616C12.932 12.5616 13.6064 11.7685 13.6725 11.6554C13.7223 11.57 13.7215 11.4731 13.6056 11.4069ZM16.0081 7.29079C16.124 7.35695 16.2096 7.30925 16.2586 7.22464C16.3255 7.11079 16.6747 6.14925 16.6747 6.14925C16.6747 6.14925 16.0089 6.93156 15.942 7.04464C15.8938 7.12925 15.8938 7.22541 16.0081 7.29079ZM13.1094 11.0308C13.0145 10.9393 12.9219 10.9631 12.8519 11.0323C12.7586 11.1254 12.1566 11.9731 12.1566 11.9731C12.1566 11.9731 13.016 11.3793 13.1094 11.2877C13.1794 11.2185 13.2043 11.1231 13.1094 11.0308ZM16.5075 7.66925C16.6024 7.76233 16.6965 7.73848 16.7665 7.66925C16.8606 7.57695 17.4501 6.73618 17.4501 6.73618C17.4501 6.73618 16.6031 7.32233 16.5098 7.41541C16.4398 7.48464 16.4141 7.57695 16.5075 7.66925ZM12.7298 10.5393C12.6621 10.4269 12.5665 10.4269 12.4801 10.4754C12.365 10.5408 11.5624 11.2054 11.5624 11.2054C11.5624 11.2054 12.5478 10.8531 12.6621 10.7877C12.7485 10.7385 12.7967 10.6539 12.7298 10.5393ZM16.8909 8.1631C16.9586 8.27772 17.0566 8.27849 17.1414 8.23002C17.2565 8.16387 18.0459 7.50387 18.0459 7.50387C18.0459 7.50387 17.0745 7.85233 16.9594 7.91772C16.8738 7.96695 16.8256 8.04925 16.8909 8.1631ZM12.491 9.96772C12.4553 9.84156 12.3619 9.81695 12.2663 9.84156C12.1387 9.87541 11.189 10.3123 11.189 10.3123C11.189 10.3123 12.2328 10.2239 12.3604 10.19C12.456 10.1639 12.5253 10.0954 12.491 9.96772ZM17.1313 8.73695C17.167 8.86464 17.2604 8.89079 17.356 8.86541C17.4844 8.83156 18.42 8.39618 18.42 8.39618C18.42 8.39618 17.3903 8.48387 17.2611 8.51772C17.1663 8.54233 17.097 8.61079 17.1313 8.73695ZM12.4094 9.35464C12.4078 9.22387 12.3246 9.17618 12.2258 9.17618C12.0936 9.17618 11.0623 9.35464 11.0623 9.35464C11.0623 9.35464 12.0936 9.53618 12.2258 9.53618C12.3246 9.53618 12.4094 9.48695 12.4094 9.35464ZM17.2145 9.35464C17.2153 9.48695 17.2985 9.53618 17.3973 9.53618C17.5303 9.53618 18.5476 9.35464 18.5476 9.35464C18.5476 9.35464 17.5295 9.17618 17.3973 9.17618C17.2985 9.17541 17.2145 9.22387 17.2145 9.35464ZM12.491 8.74156C12.5237 8.61464 12.456 8.54772 12.3604 8.52233C12.2328 8.48849 11.189 8.39695 11.189 8.39695C11.189 8.39695 12.1387 8.83618 12.2663 8.87002C12.3619 8.89541 12.4568 8.86925 12.491 8.74156ZM17.132 9.97156C17.0978 10.0993 17.1663 10.1685 17.2611 10.1939C17.3895 10.2277 18.42 10.3123 18.42 10.3123C18.42 10.3123 17.4844 9.87925 17.3553 9.84541C17.2604 9.82079 17.1663 9.84464 17.132 9.97156ZM12.7306 8.17002C12.7951 8.05618 12.7477 7.9731 12.6614 7.92464C12.547 7.85925 11.5631 7.50387 11.5631 7.50387C11.5631 7.50387 12.365 8.17079 12.4794 8.23618C12.5657 8.28541 12.6637 8.28387 12.7306 8.17002ZM16.8925 10.5462C16.8256 10.6608 16.8738 10.7454 16.9594 10.7939C17.0737 10.86 18.0467 11.2054 18.0467 11.2054C18.0467 11.2054 17.2557 10.5477 17.1414 10.4816C17.0558 10.4331 16.9586 10.4331 16.8925 10.5462ZM13.1109 7.67925C13.2035 7.58541 13.1794 7.49387 13.1094 7.42464C13.0153 7.33233 12.1581 6.73695 12.1581 6.73695C12.1581 6.73695 12.7586 7.58695 12.8511 7.67925C12.9211 7.74849 13.0168 7.7731 13.1109 7.67925ZM16.5098 11.04C16.4157 11.1339 16.4398 11.2277 16.5098 11.2962C16.6031 11.3893 17.4533 11.9723 17.4533 11.9723C17.4533 11.9723 16.8606 11.1346 16.7665 11.0416C16.6965 10.9723 16.6031 10.9469 16.5098 11.04ZM13.6087 7.3031C13.7215 7.23618 13.7223 7.14156 13.6733 7.05618C13.6071 6.9431 12.9351 6.14849 12.9351 6.14849C12.9351 6.14849 13.2914 7.1231 13.3575 7.23618C13.4065 7.32156 13.4928 7.36925 13.6087 7.3031ZM16.0113 11.4193C15.8961 11.4854 15.8946 11.5816 15.9436 11.6662C16.0105 11.78 16.6778 12.5608 16.6778 12.5608C16.6778 12.5608 16.3255 11.5993 16.2594 11.4854C16.2096 11.4016 16.1256 11.3531 16.0113 11.4193ZM14.1858 7.06695C14.3134 7.03156 14.3383 6.93925 14.3134 6.84464C14.2791 6.71849 13.8374 5.77925 13.8374 5.77925C13.8374 5.77925 13.9268 6.81156 13.961 6.93772C13.9867 7.03233 14.0567 7.10079 14.1858 7.06695ZM15.4303 11.6569C15.3011 11.6923 15.2747 11.7846 15.3004 11.8793C15.3346 12.0062 15.7748 12.9316 15.7748 12.9316C15.7748 12.9316 15.6861 11.9123 15.6519 11.7862C15.627 11.6916 15.5578 11.6231 15.4303 11.6569Z"
        fill="#FFCC4D" />
    <path
        d="M16.9913 14.8423L16.9626 14.8546L16.9307 14.8592L16.9066 14.8638L16.8622 14.8546L16.8428 14.8469L16.8249 14.8384L16.8039 14.8254L16.7689 14.8008L16.737 14.7754L16.7191 14.7631L16.6966 14.7538L16.681 14.75H16.6584L16.5706 14.9308L16.5527 14.9561L16.5356 14.9769L16.5177 14.99L16.5021 15.0031L16.4796 15.0115H16.4586L16.4391 15.0031L16.4119 14.99L16.4041 14.9769L16.3948 14.9638L16.3854 14.9469L16.3761 14.9269L16.3637 14.8631L16.338 14.8838L16.3139 14.9138L16.2657 14.9861L16.2369 15.0238L16.2066 15.0531L16.1902 15.0708L16.1692 15.0838L16.1482 15.0931L16.1226 15.1008H16.1101L16.0876 15.1054L16.0666 15.1008L16.0502 15.0931L16.0004 15.0338L15.9444 14.9746L15.9063 15.0338L15.862 15.0838L15.841 15.1046L15.8216 15.1254L15.8006 15.1423L15.7609 15.1638L15.7399 15.1684H15.7189L15.701 15.1638L15.6839 15.1546L15.6714 15.1415L15.6551 15.1215C15.6443 15.0902 15.6326 15.0592 15.6201 15.0284L15.6154 15.0069L15.6077 14.9908L15.5983 14.9823H15.589L15.4739 15.1684L15.4576 15.1846L15.4272 15.1977L15.3603 15.2138H15.3207L15.2903 15.2054L15.281 15.2008L15.2686 15.1877L15.2654 15.18V15.1631L15.281 14.9769L15.2686 14.9815L15.2351 14.9977C15.2045 15.0292 15.1747 15.0616 15.1457 15.0946L15.1076 15.1415L15.0601 15.1808L15.0158 15.2138L14.9909 15.2277L14.9396 15.2354L14.9186 15.2308L14.9092 15.2277L14.9007 15.2184L14.896 15.2054V15.1923L14.9007 15.1384L14.9139 15.0531L14.9053 15.0031L14.8874 14.9738L14.8618 15.0115L14.8198 15.0661C14.7848 15.1038 14.749 15.1407 14.7124 15.1769C14.692 15.1903 14.672 15.2044 14.6526 15.2192L14.6059 15.2354L14.5966 15.2308H14.5833L14.574 15.2231L14.5709 15.2184L14.5616 15.2054L14.5584 15.1923V15.1761L14.5538 15.1546L14.5584 14.9946C14.4807 15.0469 14.4021 15.0977 14.3228 15.1461L14.2932 15.1592L14.2598 15.1761C14.2279 15.1838 14.1968 15.1915 14.1657 15.2008H14.1346L14.1058 15.1969L14.0793 15.1877L14.0926 15.1538L14.1182 15.0946L14.1346 15.07L14.1532 15.0446L14.1696 15.0192L14.2131 14.9769L14.2606 14.9438L14.315 14.9092L14.371 14.8838L14.4356 14.8631L14.4993 14.8469L14.6448 14.8215L14.7171 14.8123C14.9318 14.8 15.1472 14.7984 15.3619 14.8L15.5976 14.7869L15.6707 14.7784L15.806 14.7531L15.8713 14.7354L15.932 14.7108L15.988 14.6854C16.0176 14.6623 16.0479 14.6392 16.079 14.6177L16.1202 14.57L16.0759 14.4861L16.1109 14.4815L16.1443 14.4738L16.1793 14.4569L16.2081 14.4354L16.2206 14.4277L16.2346 14.4146L16.2439 14.3977L16.2532 14.3854L16.2563 14.3684V14.3392L16.247 14.3223L16.3201 14.3092L16.3979 14.3008L16.4796 14.2961H16.5643C16.6833 14.3008 16.8016 14.3077 16.9198 14.3169C17.0987 14.3384 17.2783 14.3554 17.458 14.3723L17.619 14.3808V14.4392L17.6159 14.4654L17.6066 14.49L17.5988 14.5154L17.5894 14.5361L17.577 14.5531C17.5622 14.57 17.5459 14.5869 17.5296 14.6031L17.4914 14.6277L17.4502 14.6446L17.409 14.6538L17.3616 14.6623L17.2706 14.6538L17.2231 14.6408L17.1819 14.6192L17.1376 14.5984L17.1041 14.5684L17.0707 14.5354V14.6077C17.0644 14.6546 17.0567 14.7008 17.0497 14.7477L17.0333 14.7915L17.024 14.8092L17.0116 14.8215L17.0022 14.8346L16.9913 14.8423ZM13.5551 14.4446L13.6523 14.4869C13.6718 14.4709 13.6917 14.4555 13.7122 14.4408L13.7503 14.4208L13.7846 14.3992L13.9129 14.3484L14.0233 14.2977L14.0793 14.2769L14.1742 14.2269L14.2123 14.2008C14.3088 14.1384 14.406 14.0769 14.5032 14.0161L14.588 13.9569L14.6526 13.9061C14.7163 13.8492 14.7786 13.7915 14.8408 13.7331L14.8664 13.7161L14.896 13.6992C14.9314 13.6815 14.9672 13.6646 15.0033 13.6484L15.0757 13.6238C15.2203 13.5846 15.3673 13.5538 15.5151 13.5308C15.666 13.5131 15.8169 13.4931 15.9678 13.4761L16.1684 13.4423C16.2182 13.4284 16.268 13.4161 16.3186 13.4046L16.3699 13.3408L16.4523 13.2523L16.5083 13.1977L16.5706 13.1461L16.6437 13.0915L16.7284 13.0361L16.8576 12.9608C16.9501 12.9146 17.0419 12.8684 17.1337 12.8208C17.297 12.7454 17.458 12.6654 17.6182 12.5838L17.6944 12.5331L17.7154 12.4692L17.7458 12.4069L17.7839 12.3431L17.8827 12.2123C17.9278 12.1646 17.9713 12.1169 18.0149 12.0677C18.0678 12.0169 18.1222 11.9677 18.1774 11.92L18.2599 11.8531L18.3011 11.8231L18.3454 11.7938C18.3766 11.7761 18.4077 11.7592 18.4396 11.7431L18.487 11.7215L18.5329 11.7054L18.6332 11.6792L18.683 11.6761L18.7304 11.6715L18.7802 11.6761L18.8277 11.6838L18.8246 11.7346L18.8121 11.7846L18.774 11.8908L18.7421 11.9454L18.704 12.0008L18.6573 12.0592L18.6013 12.1184L18.6457 12.1138L18.6838 12.1054L18.7141 12.0961L18.7429 12.0838L18.7989 12.0669L18.879 12.0584L18.8837 12.0884V12.1177L18.879 12.1469L18.8712 12.1723L18.8588 12.1977L18.8409 12.2231L18.8246 12.2431L18.8036 12.2646C18.7448 12.3207 18.6849 12.3755 18.6239 12.4292L18.6744 12.4338C18.7118 12.4454 18.7491 12.4569 18.7872 12.4669L18.8284 12.4761L18.7787 12.5146C18.7392 12.5407 18.6993 12.5661 18.6589 12.5908L18.522 12.6669L18.4536 12.7092L18.3851 12.7561L18.3213 12.8069L18.3501 12.8108L18.3898 12.8277L18.4069 12.8323L18.4232 12.8408L18.4372 12.8446L18.4497 12.8408L18.3649 12.8877C18.3119 12.9123 18.2592 12.9377 18.207 12.9638L18.1417 13.0023L18.1292 13.0154L18.1214 13.0284L18.1121 13.0408L18.1152 13.0577L18.1246 13.0708L18.1409 13.0831L18.1564 13.0969L18.1502 13.1131L18.1409 13.1269L18.1246 13.1392L18.109 13.1523L18.0678 13.1723L18.018 13.1938L17.9208 13.2277L17.8601 13.2577L17.9449 13.3415L17.9146 13.3708L17.8858 13.3923L17.8601 13.4054L17.8298 13.4177L17.7707 13.4261H17.6867L17.696 13.4646L17.7084 13.5023L17.7263 13.5877C17.6733 13.6285 17.6191 13.6677 17.5638 13.7054L17.465 13.7684L17.3553 13.8315L17.29 13.8615L17.2262 13.8908C17.1542 13.9184 17.0813 13.9438 17.0077 13.9669L16.842 14.0015L16.751 14.0146C16.8498 14.0177 16.9486 14.0192 17.0473 14.0184L17.29 13.9931L17.3966 13.9723L17.4907 13.9469C17.5529 13.9261 17.6136 13.9031 17.6742 13.8792L17.7924 13.8254L17.9091 13.7615L18.0188 13.6931L18.1354 13.6261L18.0654 13.5923L17.9986 13.5715L17.9667 13.5569C17.9426 13.5454 17.9184 13.5338 17.8936 13.5238L17.8539 13.5023L17.8873 13.4777L17.9286 13.4608L17.9729 13.4446C18.0242 13.4323 18.0763 13.4208 18.1277 13.41C18.1946 13.4031 18.2614 13.3946 18.3283 13.3854L18.4131 13.3769L18.4784 13.3608L18.4956 13.3515L18.508 13.3384L18.5049 13.3338L18.4956 13.3254L18.4831 13.3208L18.4668 13.3131L18.4193 13.3038L18.3587 13.2954L18.2996 13.2908L18.2404 13.2823L18.1876 13.2692L18.1557 13.2561L18.5733 13.1638L18.6464 13.1423C18.6783 13.1308 18.7094 13.1177 18.7406 13.1046L18.7818 13.0784L18.7997 13.0623L18.795 13.0584L18.7872 13.0492L18.7476 13.0408L18.6931 13.0361H18.6278C18.5834 13.0331 18.5399 13.03 18.4956 13.0284L18.4411 13.0192L18.4061 13.0108L18.4668 12.9861C18.557 12.9584 18.6488 12.9331 18.7406 12.9092C18.7927 12.8915 18.8456 12.8738 18.8984 12.8584L18.9793 12.8246L19.0174 12.8038L19.0524 12.7831L19.0649 12.77L19.0781 12.7531L19.0906 12.7408L19.0952 12.7277L19.0906 12.7146L19.0781 12.7054L19.0649 12.7023H18.9467L18.8907 12.7054H18.8144L18.7919 12.7023L18.7771 12.6931L18.7584 12.6846C18.914 12.5831 19.0711 12.4823 19.229 12.3838L19.3519 12.2992C19.385 12.2721 19.4174 12.2441 19.4491 12.2154L19.4872 12.1731L19.5222 12.1308L19.5479 12.0846L19.5689 12.0384L19.5813 11.9869V11.9323H19.5526L19.5222 11.9369L19.4553 11.9615C19.3961 11.9984 19.3359 12.0338 19.2749 12.0677L19.2414 12.0892L19.2018 12.1054L19.1637 12.1184L19.1287 12.1269L19.0952 12.1315H19.0556L19.0221 12.1184L19.1256 12.0423C19.2088 11.9723 19.2912 11.9015 19.3729 11.8308C19.4632 11.7454 19.5513 11.658 19.6373 11.5684L19.7602 11.4331C19.7968 11.3854 19.8341 11.3392 19.8722 11.2931C19.9026 11.25 19.9329 11.2061 19.9617 11.1623L19.971 11.1461L19.9741 11.1331L19.971 11.1154L19.9663 11.1031L19.9617 11.0892L19.9492 11.0808L19.936 11.0677L19.9236 11.0631L19.9072 11.0554L19.8886 11.0508H19.8551L19.8388 11.0554L19.8162 11.0584L19.8038 11.0723L19.7859 11.0854C19.6988 11.1715 19.6124 11.2592 19.5277 11.3477L19.4242 11.4446C19.3563 11.5032 19.2879 11.5611 19.2189 11.6184C19.1864 11.6402 19.1535 11.6612 19.1201 11.6815L19.026 11.7284L19.0548 11.7031C19.0859 11.6738 19.1162 11.6446 19.1458 11.6146C19.2554 11.49 19.3604 11.3608 19.4616 11.23L19.6591 10.9554L19.712 10.8631L19.7649 10.7784L19.8077 10.7015L19.8411 10.6292L19.8621 10.5708L19.8668 10.55V10.5161L19.8621 10.5031L19.8466 10.4777L19.8372 10.4692L19.8232 10.4654L19.7991 10.4515L19.7672 10.4431H19.7089L19.6926 10.4477L19.6801 10.4515L19.6622 10.4608L19.6498 10.4731L19.6148 10.5031C19.5764 10.5487 19.5393 10.5954 19.5036 10.6431C19.418 10.7754 19.3278 10.9046 19.2344 11.0315L19.1263 11.1584L19.0719 11.2138L19.0128 11.2646L19.089 11.1238L19.2088 10.8754L19.2866 10.6938L19.32 10.6008L19.3791 10.41C19.3939 10.3484 19.4071 10.2869 19.4188 10.2246C19.4242 10.1669 19.4289 10.1092 19.4328 10.0508L19.4266 10.0084L19.4234 9.97076L19.4188 9.93153L19.4063 9.8823L19.397 9.86845L19.376 9.84768L19.3472 9.83537L19.3153 9.82614H19.2866L19.2593 9.83076L19.2516 9.83537L19.2391 9.83845L19.2344 9.84768C19.1574 10.0877 19.0991 10.3323 19.0322 10.5746C19.0073 10.6423 18.9824 10.71 18.956 10.7777L18.8922 10.9L18.8526 10.9546L18.8782 10.8331C18.8907 10.7623 18.9016 10.6923 18.9117 10.6215L18.9296 10.4477L18.9342 10.3754C18.9319 10.3386 18.9288 10.302 18.9249 10.2654L18.9171 10.2231L18.9047 10.1892L18.8868 10.1638L18.8774 10.1554L18.8518 10.1469L18.8393 10.1423H18.8253L18.8129 10.1469L18.7779 10.1554L18.7444 10.1723C18.718 10.3031 18.6861 10.4331 18.6503 10.5615C18.5994 10.7236 18.5397 10.8828 18.4714 11.0384C18.4253 11.1341 18.3766 11.2285 18.3252 11.3215L18.2311 11.4823L18.1292 11.6338C18.0609 11.7284 17.9901 11.8213 17.9169 11.9123C17.8453 11.9923 17.7722 12.0708 17.6983 12.1492C17.6213 12.2238 17.5428 12.2977 17.4627 12.37C17.3802 12.4377 17.297 12.5031 17.2122 12.5677C17.1088 12.6416 17.003 12.7122 16.8949 12.7792L16.7067 12.8884L16.4072 13.0246L16.0992 13.1338L15.8441 13.2108L15.5797 13.2692L15.4474 13.2908L15.1768 13.3246L15.0399 13.3331L15.0267 13.3377L15.0134 13.3415L14.9878 13.3554L14.959 13.3754C14.9255 13.4042 14.8926 13.4337 14.8602 13.4638L14.7918 13.5323L14.5437 13.8061L14.4496 13.8992L14.3391 13.9831L14.2956 14.0123L14.2528 14.0384L14.1594 14.0808C14.0148 14.1392 13.8678 14.1923 13.7223 14.25L13.6842 14.2708L13.65 14.2884L13.6251 14.3046L13.5777 14.3515L13.5644 14.3723L13.5551 14.3931L13.552 14.4231V14.4446"
        fill="#FFCC4D" />
    <path
        d="M15.1207 14.6346L15.1922 14.6438L15.2272 14.6569L15.235 14.6608V14.6654H15.2272L15.2179 14.6692L15.1495 14.6823H15.095L14.9161 14.6692L14.4627 14.6608C14.3429 14.6623 14.2231 14.6654 14.1033 14.6692C13.9976 14.6769 13.8926 14.6854 13.7868 14.6946L13.7051 14.7077L13.6328 14.7238C13.6157 14.73 13.5993 14.7362 13.5822 14.7408L13.5605 14.75L13.5433 14.7631L13.5511 14.72L13.5698 14.6769L13.5099 14.6938L13.4586 14.7192L13.4383 14.7323L13.4205 14.7492L13.4072 14.7692L13.4041 14.7908L13.3917 14.7615L13.3823 14.7354C13.3801 14.7171 13.3769 14.6988 13.373 14.6808C13.3777 14.6585 13.3823 14.6362 13.3855 14.6138L13.3995 14.5923L13.4072 14.5754L13.4251 14.5554L13.4593 14.5215L13.506 14.4915L13.5589 14.4623C13.5868 14.4784 13.6166 14.4911 13.6476 14.5C13.6782 14.5027 13.709 14.4999 13.7386 14.4915C13.786 14.5331 13.9089 14.5246 13.926 14.4492C13.9326 14.4214 13.9326 14.3924 13.926 14.3646L13.9773 14.3608L14.0372 14.3515L14.1695 14.3177L14.2387 14.3046L14.3025 14.2885L14.3623 14.28L14.4129 14.2754L14.3919 14.2931L14.2807 14.3769L14.2387 14.4062L14.2931 14.42L14.3406 14.4285L14.2395 14.5423L14.213 14.5762L14.2465 14.5892L14.2807 14.5985L14.3196 14.6069H14.3966L14.4728 14.59L14.5031 14.5723L14.5381 14.59L14.5723 14.6031C14.5941 14.6092 14.6167 14.6154 14.6392 14.62C14.6921 14.6254 14.745 14.6315 14.7987 14.6362H15.1207M14.731 13.35L14.6929 13.4262L14.6493 13.5238C14.627 13.5636 14.6059 13.6042 14.5863 13.6454L14.5646 13.6669L14.514 13.6246L14.458 13.5862L14.3981 13.5562L14.3351 13.5315L14.1975 13.4969L14.1298 13.4846C14.0558 13.4761 13.9816 13.4692 13.9073 13.4638C13.809 13.4623 13.7107 13.4577 13.6126 13.45L13.4757 13.4338L13.3987 13.4208L13.3263 13.4046L13.2501 13.3785L13.1856 13.3454L13.1381 13.3146L13.0401 13.2431C12.897 13.11 12.7555 12.9754 12.6085 12.8454L12.5237 12.7869L12.4848 12.77L12.4443 12.7577L12.372 12.7415C12.3298 12.7266 12.2872 12.7125 12.2445 12.6992C12.2046 12.6802 12.1644 12.662 12.1239 12.6446C12.0534 12.6014 11.9851 12.5547 11.9193 12.5046L11.8766 12.4654L11.7918 12.3815L11.7101 12.2931C11.5756 12.1308 11.4488 11.9631 11.3173 11.7985C11.2545 11.7325 11.1904 11.6676 11.1252 11.6038L11.07 11.5538L11.014 11.5077L10.8911 11.4192L10.8787 11.4231L10.8647 11.4362L10.8515 11.4531C10.8437 11.4723 10.8375 11.4923 10.8312 11.5123L10.8266 11.5292L10.7955 11.5154L10.7698 11.5023L10.7387 11.4892L10.713 11.4808H10.6578L10.6275 11.4892L10.5979 11.5023C10.6212 11.5315 10.6438 11.5608 10.6656 11.5908L10.7037 11.65L10.7729 11.7808L10.7978 11.8446L10.8071 11.8785L10.8165 11.9038L10.8203 11.9331V11.9577H10.5901L10.6236 12.0085C10.6492 12.0431 10.6765 12.0769 10.7037 12.11L10.8452 12.25L10.8927 12.2877L10.9362 12.3177C10.8992 12.3215 10.8621 12.3246 10.825 12.3269L10.713 12.3392L10.7511 12.3738C10.7846 12.3969 10.8172 12.4208 10.8499 12.4454L10.9051 12.4831L10.9611 12.5169L11.0163 12.5469L11.0677 12.5638L11.1151 12.5762L11.1532 12.5846L11.1657 12.5892L11.175 12.5985L11.1781 12.6023V12.6185L11.1657 12.6531L11.1626 12.6777L11.1571 12.6946V12.7069L11.1626 12.7285L11.1657 12.7454L11.175 12.7531L11.1875 12.7623L11.2038 12.7708L11.2256 12.7754L11.2691 12.7923L11.2901 12.8L11.3072 12.8131L11.3111 12.8177V12.8262L11.3072 12.8308L11.273 12.8554L11.2559 12.8723L11.2388 12.8931V12.9108L11.2349 12.9277L11.2435 12.9731L11.3928 13.0238L11.427 13.0315L11.4612 13.0454L11.4869 13.0585L11.5087 13.0715L11.3671 13.1815L11.4052 13.2154L11.4527 13.2408L11.5126 13.27C11.5553 13.2854 11.5981 13.2992 11.6417 13.3131L11.7055 13.3254L11.7615 13.3385H11.812L11.7646 13.3723L11.7047 13.41L11.6409 13.4446L11.5935 13.4785L11.6362 13.5077C11.7661 13.5738 11.8991 13.6354 12.0345 13.69C12.2709 13.7854 12.5128 13.8685 12.7562 13.9431C12.8107 13.9562 12.8643 13.97 12.918 13.9854L12.9865 13.9985L12.8488 13.9854C12.7632 13.9744 12.6779 13.9616 12.5929 13.9469L12.4731 13.9215L12.2375 13.8546L12.127 13.8162C11.8315 13.7023 11.5429 13.5715 11.2466 13.4608L11.2683 13.4485L11.3282 13.4269L11.3663 13.4185C11.4185 13.4031 11.469 13.3862 11.5203 13.3677C11.4185 13.3524 11.3171 13.3345 11.2162 13.3138C11.164 13.297 11.1113 13.2814 11.0583 13.2669L11.028 13.2538L11.0023 13.2408L10.9813 13.2269L10.9673 13.2146V13.2108L10.972 13.2062L10.9852 13.2015L10.9977 13.1931L11.0319 13.18L11.1812 13.1369L11.2676 13.1077C11.1439 13.0846 11.0195 13.0638 10.895 13.0446L10.8351 13.0308L10.7877 13.0146L10.7706 13.0054L10.7542 12.9923L10.7402 12.9846L10.7317 12.9708L10.7449 12.9623L10.783 12.9538C10.8227 12.9477 10.8631 12.9408 10.9028 12.9331L10.9712 12.9246C11.0101 12.9138 11.0482 12.9023 11.0863 12.89L11.1042 12.8777L11.1213 12.8638L11.0537 12.8385L11.0101 12.8308L10.9673 12.8215L10.7713 12.7962L10.72 12.7838L10.6726 12.7746L10.5785 12.7415L10.5349 12.72L10.4999 12.6954L10.4657 12.6654L10.44 12.6277L10.4493 12.6231L10.4657 12.6185H10.4875L10.5217 12.6231L10.6842 12.6315L10.7791 12.6408H10.8981L10.9316 12.6362L10.958 12.6277L10.9751 12.6185C10.8947 12.5861 10.8148 12.5522 10.7356 12.5169C10.6831 12.4906 10.6302 12.4652 10.5769 12.4408L10.4151 12.3569L10.3381 12.31C10.2907 12.2768 10.2438 12.243 10.1973 12.2085L10.1375 12.1577L10.111 12.1285L10.0846 12.1031L10.0682 12.0777L10.0503 12.0477L10.0332 12.0231L10.0239 11.9938L10.0169 11.9392H10.0457L10.0799 11.9431L10.1141 11.9569L10.1483 11.9692L10.216 12.0115L10.293 12.0538L10.3272 12.0754L10.3653 12.0954L10.4035 12.1123L10.4377 12.1254L10.4758 12.1346L10.51 12.1385H10.5489L10.5823 12.1254L10.4812 12.0485C10.3975 11.9797 10.3148 11.9097 10.2331 11.8385C10.0978 11.711 9.96775 11.5781 9.84345 11.44L9.78901 11.3685L9.73301 11.3008C9.70231 11.2573 9.67223 11.2135 9.64279 11.1692L9.63501 11.1523V11.1231L9.6389 11.11L9.64279 11.0977L9.65601 11.0892L9.66845 11.0762L9.68245 11.0669L9.69879 11.0623L9.7159 11.0592H9.75012L9.77112 11.0623L9.78979 11.0669L9.80612 11.08C9.89868 11.1708 9.98968 11.2623 10.0791 11.3554C10.1779 11.4492 10.2806 11.54 10.3871 11.6262L10.4851 11.6885L10.5357 11.7146L10.5831 11.7308L10.5497 11.71L10.4602 11.6215C10.3506 11.4969 10.2463 11.3677 10.1437 11.2369C10.0985 11.1755 10.0541 11.1134 10.0107 11.0508C9.97193 10.9895 9.932 10.929 9.8909 10.8692C9.85832 10.8163 9.82694 10.7627 9.79679 10.7085C9.77944 10.6645 9.76129 10.6209 9.74234 10.5777L9.7369 10.5569V10.5223L9.74234 10.51L9.75868 10.4846L9.76801 10.4754L9.78123 10.4677L9.83645 10.45H9.89634L9.91345 10.4538L9.9259 10.4585L9.94301 10.4677L9.99045 10.51L10.1017 10.65C10.1888 10.7823 10.2806 10.9115 10.3755 11.0385L10.4766 11.1654L10.5326 11.22L10.5925 11.2708C10.5243 11.1429 10.459 11.0137 10.3965 10.8831C10.37 10.8229 10.3443 10.7624 10.3195 10.7015L10.2852 10.6085C10.2672 10.5443 10.2472 10.4807 10.2253 10.4177L10.2043 10.3246L10.1888 10.23L10.1795 10.1415L10.1756 10.0577L10.1795 10.0154L10.1849 9.97692L10.1888 9.93846L10.1973 9.90077L10.2059 9.88692L10.2106 9.87461L10.223 9.86077L10.2316 9.85308L10.2611 9.84L10.2915 9.83231H10.321L10.3467 9.83692L10.3591 9.84L10.3685 9.84461L10.3731 9.85384L10.3778 9.86615C10.4509 10.1023 10.5108 10.3423 10.5738 10.5815C10.5987 10.6485 10.6243 10.7146 10.6516 10.78L10.6811 10.8431L10.7153 10.9023L10.7535 10.9615L10.7286 10.8385C10.7188 10.7682 10.7074 10.6982 10.6943 10.6285C10.6858 10.5468 10.6788 10.465 10.6733 10.3831L10.6819 10.2731L10.6905 10.23L10.7037 10.1969L10.7208 10.1715L10.7293 10.1623L10.7418 10.1538L10.7542 10.15H10.7931L10.8281 10.1623L10.8616 10.1792L10.9215 10.4454C10.9432 10.5262 10.9673 10.6069 10.9938 10.6862C11.0373 10.8069 11.0848 10.9269 11.1353 11.0454L11.1952 11.1677L11.2808 11.3292L11.3741 11.4892L11.4776 11.6415L11.588 11.7931L11.6915 11.92C11.763 12 11.8353 12.0792 11.9092 12.1569C11.9862 12.2315 12.0648 12.3046 12.1449 12.3762L12.2686 12.4785C12.3821 12.5662 12.4988 12.6492 12.6193 12.7277C12.7135 12.7831 12.8091 12.8369 12.9056 12.8885L13.1996 13.0285C13.3489 13.0869 13.4998 13.1408 13.6522 13.1885C13.8016 13.2277 13.9532 13.2615 14.1057 13.29C14.3102 13.3223 14.5202 13.3415 14.731 13.35Z"
        fill="#FFCC4D" />
    <path
        d="M2.68865 18.5938C2.68865 18.5938 2.50432 18.7454 2.4421 18.6692C2.34177 18.5462 2.75088 17.9315 2.75088 17.7146C2.75088 17.36 2.51054 17.2615 2.21499 17.2115C2.01588 17.1777 1.6931 17.2262 1.6931 17.2262C1.75377 17.3069 1.79343 17.3323 1.8961 17.3369C1.82536 17.3737 1.76636 17.4293 1.72571 17.4973C1.68505 17.5654 1.66433 17.6433 1.66588 17.7223C1.66588 18.0269 1.79343 18.1531 1.79343 18.4985C1.79343 18.69 1.63477 18.9331 1.63477 18.9331C1.91477 18.9054 2.05477 18.6492 1.97543 18.4431C1.99687 18.4391 2.01895 18.4403 2.0398 18.4466C2.06066 18.4529 2.07967 18.4641 2.09521 18.4792C2.11543 18.4231 2.08354 18.3562 2.03999 18.3C2.07499 18.2823 2.10065 18.2931 2.15588 18.3039C2.15043 18.2454 2.11465 18.1839 2.02832 18.1254C2.28032 18.1892 2.4351 18.0162 2.4351 17.8346C2.4351 17.6962 2.33788 17.5977 2.24221 17.5977C2.20598 17.5988 2.17075 17.6097 2.14032 17.6292C2.12243 17.5923 2.13177 17.5415 2.14965 17.5038C2.08043 17.5215 2.0361 17.5623 2.06799 17.6485C2.04427 17.6488 2.02088 17.6541 1.99933 17.6639C1.97777 17.6737 1.95851 17.6878 1.94277 17.7054C1.95764 17.7238 1.97678 17.7385 1.99857 17.7481C2.02035 17.7578 2.04416 17.7621 2.06799 17.7608C2.0291 17.8408 2.07265 17.8862 2.13565 17.9215C2.13565 17.9215 2.09521 17.7608 2.19865 17.7608C2.24532 17.7608 2.28732 17.7769 2.28732 17.8439C2.28732 17.9015 2.23521 17.9831 2.11543 17.9785C1.99488 17.9731 1.89765 17.8962 1.89765 17.7077C1.89765 17.5315 2.03999 17.4446 2.22743 17.4392C2.39699 17.4339 2.52454 17.5246 2.52454 17.6977C2.52454 17.9269 2.18854 18.4515 2.18854 18.6562C2.18854 18.81 2.32777 18.8954 2.46465 18.8954C2.64199 18.8954 2.79132 18.7215 2.79132 18.7215L2.68865 18.5938ZM2.64977 14.4385C2.64977 14.0554 2.99821 13.8577 3.27199 13.8577C3.64065 13.8577 3.83743 14.0762 3.83743 14.3608C3.83743 14.5238 3.8071 14.6254 3.73165 14.78L2.88621 16.5162C2.85527 16.5891 2.84169 16.668 2.84654 16.7469C2.84654 16.9023 2.99977 17.03 3.15999 17.0338C3.30543 17.0377 3.46488 16.8992 3.46488 16.7415C3.46488 16.55 3.36532 16.4654 3.26188 16.4654C3.1351 16.4654 3.08454 16.5162 3.08454 16.6046C3.08454 16.6669 3.11488 16.6931 3.15765 16.6931C3.26654 16.6931 3.23621 16.5485 3.23621 16.5485C3.2507 16.5515 3.26435 16.5575 3.2762 16.5663C3.28804 16.5751 3.2978 16.5863 3.30477 16.5993C3.31174 16.6122 3.31577 16.6264 3.31655 16.6411C3.31734 16.6557 3.31487 16.6703 3.30932 16.6839C3.35005 16.6923 3.3869 16.7136 3.41432 16.7446C3.38631 16.7741 3.34954 16.7941 3.30932 16.8015C3.33499 16.8846 3.30077 16.9254 3.22765 16.9431C3.24026 16.9151 3.24379 16.8839 3.23777 16.8539C3.12188 16.8862 2.94454 16.8354 2.94454 16.6369C2.94454 16.44 3.08221 16.2746 3.34121 16.3154C3.27899 16.2877 3.24865 16.2285 3.24243 16.1608C3.2891 16.18 3.34121 16.1823 3.34121 16.1823C3.31088 16.13 3.26888 16.0846 3.27043 15.98C3.31865 16.0023 3.36299 16.0415 3.42443 16.0162C3.32799 15.8292 3.44621 15.5723 3.74799 15.51C3.64555 15.6202 3.5872 15.7635 3.58388 15.9131C3.58388 16.3592 3.70988 16.4331 3.70988 16.7423C3.70779 16.8144 3.68853 16.885 3.65366 16.9484C3.61879 17.0117 3.5693 17.066 3.50921 17.1069V17.1015C3.59632 17.1246 3.6531 17.1685 3.68577 17.2262C3.48432 17.2823 3.1911 17.2815 3.03477 17.2208C2.9639 17.2106 2.89621 17.185 2.83662 17.1457C2.77702 17.1065 2.727 17.0546 2.69021 16.9938C2.65219 16.9072 2.63257 16.8137 2.63257 16.7192C2.63257 16.6248 2.65219 16.5313 2.69021 16.4446C2.80999 16.1977 3.37465 15.0139 3.55043 14.6408C3.58921 14.5616 3.60967 14.4749 3.61032 14.3869C3.61032 14.16 3.39954 14.08 3.27977 14.08C3.13588 14.08 2.98965 14.1892 2.98965 14.3231C2.98965 14.4092 3.0371 14.46 3.10399 14.46C3.26654 14.46 3.25643 14.3238 3.22377 14.2377C3.3241 14.2838 3.38321 14.3623 3.36688 14.4469C3.42443 14.4546 3.47888 14.4815 3.52865 14.5369C3.48899 14.5877 3.44077 14.6246 3.36688 14.6254C3.39954 14.7562 3.31088 14.8115 3.22377 14.8415C3.25099 14.7462 3.26888 14.6346 3.10399 14.6346C2.98343 14.6346 2.88854 14.6139 2.83332 14.5362C2.82943 14.64 2.81932 15.0477 2.81932 15.0477C2.8131 15.2015 3.02699 15.1969 3.1631 15.1515C3.11099 15.3285 3.00599 15.4246 2.76099 15.4C2.79851 15.4143 2.83055 15.4399 2.8526 15.4731C2.87465 15.5064 2.88559 15.5457 2.88388 15.5854C2.88388 15.73 2.76565 15.8892 2.68865 15.9369L2.64977 14.4385Z"
        fill="#FFCC4D" />
    <path
        d="M2.72673 14.4385C2.72673 14.0554 2.37828 13.8577 2.10451 13.8577C1.73584 13.8577 1.53906 14.0761 1.53906 14.3608C1.53906 14.5238 1.5694 14.6254 1.64484 14.78L2.49028 16.5161C2.52096 16.5891 2.53427 16.6681 2.52917 16.7469C2.52917 16.9023 2.37595 17.03 2.21651 17.0338C2.07028 17.0377 1.91162 16.8992 1.91162 16.7415C1.91162 16.55 2.01117 16.4654 2.11462 16.4654C2.2414 16.4654 2.29195 16.5161 2.29195 16.6046C2.29195 16.6669 2.26162 16.6931 2.21884 16.6931C2.10995 16.6931 2.14028 16.5485 2.14028 16.5485C2.12579 16.5514 2.11214 16.5575 2.1003 16.5663C2.08845 16.5751 2.0787 16.5863 2.07172 16.5992C2.06475 16.6122 2.06073 16.6264 2.05994 16.641C2.05916 16.6557 2.06163 16.6703 2.06717 16.6838C2.02644 16.6923 1.98959 16.7136 1.96217 16.7446C1.99018 16.7741 2.02695 16.7941 2.06717 16.8015C2.04228 16.8846 2.07651 16.9254 2.14962 16.9423C2.13702 16.9143 2.13348 16.8831 2.13951 16.8531C2.2554 16.8854 2.43273 16.8346 2.43273 16.6361C2.43273 16.4392 2.29506 16.2738 2.03684 16.3146C2.09828 16.2869 2.1294 16.2277 2.13484 16.16C2.10348 16.1721 2.07043 16.1794 2.03684 16.1815C2.0664 16.1292 2.1084 16.0838 2.10684 15.9792C2.05862 16.0015 2.01506 16.0408 1.95284 16.0154C2.04928 15.8285 1.93106 15.5715 1.62928 15.5092C1.73173 15.6194 1.79007 15.7627 1.7934 15.9123C1.7934 16.3585 1.66817 16.4323 1.66817 16.7415C1.66817 16.8708 1.73584 17.0115 1.86884 17.1061V17.1008C1.83223 17.1081 1.79759 17.1231 1.76718 17.1445C1.73676 17.166 1.71125 17.1935 1.69228 17.2254C1.89373 17.2815 2.18617 17.2808 2.34328 17.22C2.41415 17.2098 2.48184 17.1842 2.54144 17.145C2.60103 17.1057 2.65105 17.0538 2.68784 16.9931C2.72586 16.9064 2.74548 16.8129 2.74548 16.7185C2.74548 16.624 2.72586 16.5305 2.68784 16.4438C2.56806 16.1969 2.0034 15.0131 1.82762 14.64C1.78884 14.5608 1.76839 14.4741 1.76773 14.3861C1.76773 14.1592 1.97851 14.0792 2.09828 14.0792C2.24217 14.0792 2.3884 14.1885 2.3884 14.3223C2.3884 14.4085 2.34095 14.4592 2.27406 14.4592C2.11151 14.4592 2.12162 14.3231 2.15351 14.2369C2.05317 14.2831 1.99406 14.3615 2.0104 14.4461C1.94718 14.4556 1.88964 14.4876 1.84862 14.5361C1.88828 14.5869 1.93651 14.6238 2.0104 14.6246C1.97773 14.7554 2.0664 14.8108 2.15351 14.8408C2.12628 14.7454 2.1084 14.6338 2.27406 14.6338C2.39462 14.6338 2.48951 14.6131 2.54473 14.5354L2.55873 15.0469C2.56495 15.2008 2.35028 15.1961 2.21417 15.1508C2.26551 15.3269 2.37128 15.4231 2.61551 15.3985C2.57798 15.4127 2.54594 15.4383 2.52389 15.4716C2.50185 15.5048 2.49091 15.5441 2.49262 15.5838C2.49262 15.7285 2.61006 15.8877 2.68784 15.9354L2.72673 14.4385ZM2.68862 18.5938C2.68862 18.5938 2.87295 18.7454 2.93517 18.6692C3.03551 18.5461 2.6264 17.9315 2.6264 17.7146C2.6264 17.36 2.86673 17.2615 3.16228 17.2115C3.3614 17.1777 3.68495 17.2261 3.68495 17.2261C3.62351 17.3069 3.58462 17.3323 3.48195 17.3369C3.55263 17.3738 3.61158 17.4293 3.65223 17.4974C3.69287 17.5654 3.71363 17.6433 3.71217 17.7223C3.71217 18.0269 3.58462 18.1531 3.58462 18.4985C3.58462 18.69 3.74328 18.9331 3.74328 18.9331C3.46328 18.9054 3.32328 18.6492 3.40262 18.4431C3.38118 18.4392 3.35914 18.4405 3.3383 18.4468C3.31747 18.4531 3.29846 18.4642 3.28284 18.4792C3.26262 18.4231 3.29528 18.3561 3.33806 18.3C3.30306 18.2823 3.2774 18.2931 3.22217 18.3038C3.22762 18.2454 3.26262 18.1838 3.34973 18.1254C3.09773 18.1892 2.94295 18.0161 2.94295 17.8346C2.94295 17.6961 3.04017 17.5977 3.13584 17.5977C3.16695 17.5977 3.21206 17.6108 3.23773 17.6292C3.25562 17.5923 3.24628 17.5415 3.22762 17.5038C3.29762 17.5215 3.34117 17.5623 3.31006 17.6485C3.33378 17.6489 3.35714 17.6542 3.37869 17.664C3.40024 17.6738 3.41951 17.6879 3.43528 17.7054C3.42041 17.7238 3.40127 17.7385 3.37948 17.7481C3.3577 17.7578 3.33389 17.7621 3.31006 17.7608C3.34895 17.8408 3.3054 17.8861 3.2424 17.9215C3.2424 17.9215 3.28284 17.7608 3.1794 17.7608C3.13273 17.7608 3.09073 17.7769 3.09073 17.8438C3.09073 17.9015 3.14284 17.9831 3.26262 17.9785C3.3824 17.9731 3.47962 17.8961 3.47962 17.7077C3.47962 17.5315 3.33728 17.4446 3.14984 17.4392C2.98028 17.4338 2.85273 17.5246 2.85273 17.6977C2.85273 17.9269 3.18873 18.4515 3.18873 18.6561C3.18873 18.81 3.04951 18.8954 2.91262 18.8954C2.73528 18.8954 2.58595 18.7215 2.58595 18.7215L2.68862 18.5938ZM2.64973 7.71307C2.64973 7.32845 2.99817 7.13153 3.27195 7.13153C3.64062 7.13153 3.8374 7.34999 3.8374 7.63538C3.8374 7.79768 3.80706 7.89922 3.73162 8.05384L2.88617 9.79076C2.85519 9.86337 2.84161 9.9421 2.84651 10.0208C2.84651 10.1769 2.99973 10.3038 3.15995 10.3085C3.3054 10.3115 3.46484 10.1731 3.46484 10.0161C3.46484 9.82538 3.36528 9.73999 3.26184 9.73999C3.13506 9.73999 3.08451 9.79153 3.08451 9.87999C3.08451 9.94076 3.11484 9.96768 3.15762 9.96768C3.26651 9.96768 3.23617 9.82307 3.23617 9.82307C3.25054 9.82598 3.26409 9.83197 3.27586 9.84062C3.28763 9.84926 3.29734 9.86036 3.30431 9.87312C3.31128 9.88588 3.31534 9.89999 3.3162 9.91447C3.31706 9.92895 3.3147 9.94344 3.30928 9.95692C3.35006 9.96575 3.38687 9.98733 3.41428 10.0185C3.38616 10.048 3.34947 10.0681 3.30928 10.0761C3.33495 10.1592 3.30073 10.1992 3.22762 10.2169C3.24027 10.1889 3.2438 10.1577 3.23773 10.1277C3.12184 10.16 2.94451 10.1092 2.94451 9.91076C2.94451 9.71461 3.08217 9.54922 3.34117 9.58999C3.27895 9.56076 3.24862 9.50153 3.2424 9.43538C3.28906 9.45384 3.34117 9.45538 3.34117 9.45538C3.31084 9.40307 3.26884 9.35768 3.2704 9.25384C3.31862 9.27538 3.36295 9.31538 3.4244 9.28999C3.32795 9.1023 3.44617 8.84461 3.74795 8.78384C3.64575 8.89414 3.58745 9.03735 3.58384 9.18691C3.58384 9.6323 3.70984 9.70691 3.70984 10.0169C3.70984 10.1461 3.64217 10.2861 3.50917 10.3815V10.3761C3.59473 10.3992 3.65073 10.4415 3.68417 10.5C3.48273 10.5569 3.18951 10.5554 3.03317 10.4946C2.96236 10.4843 2.89474 10.4586 2.83516 10.4194C2.77559 10.3801 2.72554 10.3283 2.68862 10.2677C2.65059 10.1813 2.63097 10.0881 2.63097 9.99384C2.63097 9.89961 2.65059 9.80639 2.68862 9.71999C2.8084 9.4723 3.37306 8.28845 3.54884 7.91538C3.5872 7.83607 3.60764 7.74944 3.60873 7.66153C3.60873 7.43384 3.39795 7.35384 3.27817 7.35384C3.13428 7.35384 2.98806 7.4623 2.98806 7.59615C2.98806 7.6823 3.03551 7.73384 3.1024 7.73384C3.26495 7.73384 3.25484 7.59691 3.22217 7.51153C3.32251 7.55615 3.38162 7.63615 3.36528 7.72076C3.42284 7.72845 3.47728 7.75461 3.52706 7.81153C3.4874 7.86076 3.43917 7.89768 3.36528 7.89922C3.39795 8.03076 3.30928 8.08615 3.22217 8.11615C3.2494 8.02076 3.26728 7.90999 3.1024 7.90999C2.98184 7.90999 2.88695 7.88922 2.83173 7.8123C2.82784 7.91538 2.81773 8.32384 2.81773 8.32384C2.81151 8.47691 3.0254 8.47307 3.16151 8.42692C3.11095 8.60384 3.00595 8.69922 2.76095 8.67461C2.79854 8.68904 2.83061 8.71476 2.85265 8.74815C2.87469 8.78154 2.8856 8.82092 2.88384 8.86076C2.88384 9.00461 2.76562 9.16461 2.68862 9.21153L2.64973 7.71307Z"
        fill="#FFCC4D" />
    <path
        d="M2.72673 7.71307C2.72673 7.32845 2.37828 7.13153 2.10451 7.13153C1.73584 7.13153 1.53906 7.34999 1.53906 7.63538C1.53906 7.79768 1.5694 7.89922 1.64484 8.05384L2.49028 9.79076C2.51984 9.85153 2.52917 9.91999 2.52917 10.0208C2.52917 10.1769 2.37595 10.3038 2.21651 10.3085C2.07028 10.3115 1.91162 10.1731 1.91162 10.0161C1.91162 9.82538 2.01117 9.73999 2.11462 9.73999C2.2414 9.73999 2.29195 9.79153 2.29195 9.87999C2.29195 9.94076 2.26162 9.96768 2.21884 9.96768C2.10995 9.96768 2.14028 9.82307 2.14028 9.82307C2.12585 9.82585 2.11222 9.83177 2.10037 9.84039C2.08852 9.849 2.07875 9.86011 2.07176 9.87291C2.06477 9.88571 2.06073 9.89988 2.05994 9.9144C2.05914 9.92893 2.06162 9.94345 2.06717 9.95692C2.0264 9.96575 1.98959 9.98733 1.96217 10.0185C1.9903 10.048 2.02699 10.0681 2.06717 10.0761C2.04228 10.1592 2.07573 10.1992 2.14884 10.2169C2.13619 10.1889 2.13265 10.1577 2.13873 10.1277C2.25462 10.16 2.43195 10.1092 2.43195 9.91076C2.43195 9.71461 2.29428 9.54922 2.03606 9.58999C2.09751 9.56076 2.12862 9.50153 2.13406 9.43538C2.0874 9.45384 2.03606 9.45538 2.03606 9.45538C2.06562 9.40307 2.10762 9.35768 2.10606 9.25384C2.05784 9.27538 2.01428 9.31538 1.95206 9.28999C2.04851 9.1023 1.93028 8.84461 1.62851 8.78384C1.73071 8.89414 1.78901 9.03735 1.79262 9.18691C1.79262 9.6323 1.6674 9.70691 1.6674 10.0169C1.6674 10.1461 1.73506 10.2861 1.86806 10.3815V10.3761C1.78173 10.3992 1.72495 10.4415 1.69306 10.5C1.89451 10.5569 2.18695 10.5554 2.34406 10.4946C2.41488 10.4843 2.4825 10.4586 2.54208 10.4194C2.60165 10.3801 2.6517 10.3283 2.68862 10.2677C2.72664 10.1813 2.74627 10.0881 2.74627 9.99384C2.74627 9.89961 2.72664 9.80639 2.68862 9.71999C2.56884 9.4723 2.00417 8.28845 1.8284 7.91538C1.78968 7.83646 1.76923 7.75001 1.76851 7.6623C1.76851 7.43461 1.97928 7.35461 2.09906 7.35461C2.24295 7.35461 2.38917 7.46307 2.38917 7.59692C2.38917 7.68307 2.34173 7.73461 2.27484 7.73461C2.11228 7.73461 2.1224 7.59768 2.15428 7.5123C2.05395 7.55692 1.99484 7.63691 2.01117 7.72153C1.94767 7.73072 1.88995 7.7631 1.8494 7.8123C1.88906 7.86153 1.93728 7.89845 2.01117 7.89999C1.97851 8.03153 2.06717 8.08692 2.15428 8.11692C2.12706 8.02153 2.10917 7.91076 2.27484 7.91076C2.3954 7.91076 2.49028 7.88999 2.54551 7.81307L2.55873 8.32307C2.56495 8.47615 2.35028 8.4723 2.21417 8.42615C2.26551 8.60307 2.37128 8.69845 2.61551 8.67461C2.57792 8.68904 2.54585 8.71476 2.52381 8.74815C2.50177 8.78154 2.49086 8.82092 2.49262 8.86076C2.49262 9.00461 2.61006 9.16461 2.68784 9.21153L2.72673 7.71307Z"
        fill="#FFCC4D" />
    <path
        d="M2.7268 6.56078C2.7268 6.94462 2.37835 7.14232 2.10458 7.14232C1.73591 7.14232 1.53913 6.92385 1.53913 6.6377C1.53913 6.47616 1.56947 6.37462 1.64491 6.21924L2.49035 4.48232C2.52102 4.40962 2.53433 4.33092 2.52924 4.25232C2.52924 4.09693 2.37602 3.96924 2.21658 3.96539C2.07035 3.96232 1.91169 4.10001 1.91169 4.2577C1.91169 4.44924 2.01124 4.53385 2.11469 4.53385C2.24147 4.53385 2.29202 4.48232 2.29202 4.39385C2.29202 4.33232 2.26169 4.30616 2.21891 4.30616C2.11002 4.30616 2.14035 4.45078 2.14035 4.45078C2.12589 4.44789 2.11225 4.44189 2.1004 4.43319C2.08855 4.42449 2.07879 4.41332 2.07181 4.40046C2.06483 4.38761 2.0608 4.37339 2.06001 4.35882C2.05922 4.34424 2.06169 4.32968 2.06724 4.31616C2.0263 4.30824 1.98928 4.28682 1.96224 4.25539C1.99063 4.22637 2.02724 4.20652 2.06724 4.19847C2.04235 4.11539 2.07658 4.07539 2.14969 4.0577C2.13704 4.08568 2.1335 4.11687 2.13958 4.14693C2.25547 4.11462 2.4328 4.16693 2.4328 4.36385C2.4328 4.56001 2.29513 4.72539 2.03691 4.68462C2.09835 4.71385 2.12947 4.77308 2.13491 4.83924C2.10335 4.82806 2.07036 4.82133 2.03691 4.81924C2.06647 4.87155 2.10847 4.91693 2.10691 5.02078C2.05869 4.99924 2.01513 4.95924 1.95291 4.98462C2.04935 5.17232 1.93113 5.43001 1.62935 5.49155C1.73155 5.38093 1.78983 5.23749 1.79347 5.0877C1.79347 4.64308 1.66824 4.5677 1.66824 4.25847C1.66824 4.12924 1.73591 3.98924 1.86891 3.89385V3.89924C1.83239 3.89162 1.79788 3.87653 1.76761 3.85494C1.73734 3.83334 1.71197 3.80572 1.69313 3.77385C1.89458 3.7177 2.18702 3.71847 2.34413 3.78001C2.41506 3.79025 2.4828 3.816 2.5424 3.85538C2.602 3.89477 2.65198 3.94681 2.68869 4.0077C2.72676 4.09409 2.74641 4.18731 2.74641 4.28155C2.74641 4.37578 2.72676 4.46901 2.68869 4.55539C2.56891 4.80308 2.00424 5.98693 1.82847 6.35924C1.78968 6.43813 1.76922 6.5246 1.76858 6.61232C1.76858 6.84078 1.97935 6.92001 2.09913 6.92001C2.24302 6.92001 2.38924 6.81155 2.38924 6.67693C2.38924 6.59155 2.3418 6.53924 2.27491 6.53924C2.11235 6.53924 2.12247 6.67539 2.15435 6.76155C2.05402 6.71693 1.99491 6.63693 2.01124 6.55232C1.94784 6.54284 1.89022 6.51051 1.84947 6.46155C1.88913 6.41232 1.93735 6.37462 2.01124 6.37385C1.97858 6.24308 2.06724 6.18693 2.15435 6.15616C2.12713 6.25231 2.10924 6.36385 2.27491 6.36385C2.39547 6.36385 2.49035 6.38385 2.54558 6.46155L2.55958 5.94924C2.5658 5.79616 2.35113 5.80078 2.21502 5.84616C2.26635 5.66924 2.37213 5.57385 2.61635 5.5977C2.57877 5.58327 2.5467 5.55755 2.52466 5.52416C2.50262 5.49077 2.49171 5.45138 2.49347 5.41155C2.49347 5.2677 2.61091 5.1077 2.68869 5.06078L2.7268 6.56078ZM2.7268 13.2869C2.7268 13.6708 2.37835 13.8677 2.10458 13.8677C1.73591 13.8677 1.53913 13.65 1.53913 13.3646C1.53725 13.2184 1.57369 13.0743 1.64491 12.9462L2.49035 11.2092C2.52102 11.1365 2.53433 11.0578 2.52924 10.9792C2.52924 10.8231 2.37602 10.6962 2.21658 10.6923C2.07035 10.6885 1.91169 10.8269 1.91169 10.9839C1.91169 11.1746 2.01124 11.26 2.11469 11.26C2.24147 11.26 2.29202 11.2085 2.29202 11.12C2.29202 11.0592 2.26169 11.0331 2.21891 11.0331C2.11002 11.0331 2.14035 11.1777 2.14035 11.1777C2.12596 11.1747 2.11241 11.1686 2.10063 11.1599C2.08886 11.1512 2.07915 11.14 2.07219 11.1272C2.06523 11.1144 2.06118 11.1002 2.06033 11.0857C2.05947 11.0711 2.06183 11.0566 2.06724 11.0431C2.02622 11.0349 1.9892 11.0132 1.96224 10.9815C1.99045 10.9523 2.02713 10.9324 2.06724 10.9246C2.04235 10.8408 2.0758 10.8008 2.14891 10.7831C2.13626 10.8111 2.13272 10.8423 2.1388 10.8723C2.25469 10.84 2.43202 10.8915 2.43202 11.0892C2.43202 11.2854 2.29435 11.45 2.03613 11.41C2.09758 11.44 2.12869 11.4985 2.13413 11.5654C2.08747 11.5477 2.03613 11.5446 2.03613 11.5446C2.06569 11.5969 2.10769 11.6431 2.10613 11.7462C2.05791 11.7246 2.01435 11.6846 1.95213 11.71C2.04858 11.8969 1.93035 12.1562 1.62858 12.2162C1.7309 12.1059 1.78922 11.9627 1.79269 11.8131C1.79269 11.3692 1.66747 11.2931 1.66747 10.9839C1.66747 10.8539 1.73513 10.7139 1.86813 10.6192V10.6239C1.7818 10.6015 1.72502 10.5592 1.69313 10.5C1.89458 10.4439 2.18702 10.4446 2.34413 10.5062C2.41494 10.5165 2.48257 10.5422 2.54214 10.5814C2.60172 10.6206 2.65177 10.6724 2.68869 10.7331C2.72671 10.8195 2.74634 10.9127 2.74634 11.0069C2.74634 11.1012 2.72671 11.1944 2.68869 11.2808C2.56891 11.5285 2.00424 12.7123 1.82847 13.0854C1.78958 13.1642 1.76911 13.2507 1.76858 13.3385C1.76858 13.5662 1.97935 13.6454 2.09913 13.6454C2.24302 13.6454 2.38924 13.5369 2.38924 13.4023C2.38924 13.3185 2.3418 13.2662 2.27491 13.2662C2.11235 13.2662 2.12247 13.4023 2.15435 13.4877C2.05402 13.4431 1.99491 13.3623 2.01124 13.2785C1.94778 13.2697 1.89 13.2376 1.84947 13.1885C1.8679 13.1626 1.89204 13.1412 1.92007 13.1258C1.94809 13.1105 1.97927 13.1017 2.01124 13.1C1.97858 12.9692 2.06724 12.9146 2.15435 12.8839C2.12713 12.98 2.10924 13.0908 2.27491 13.0908C2.39547 13.0908 2.49035 13.1108 2.54558 13.1892L2.55958 12.6769C2.5658 12.5246 2.35113 12.5285 2.21502 12.5739C2.26635 12.3977 2.37213 12.3023 2.61635 12.3262C2.57877 12.3117 2.5467 12.286 2.52466 12.2526C2.50262 12.2192 2.49171 12.1798 2.49347 12.14C2.49347 11.9962 2.61091 11.8369 2.68869 11.7892L2.7268 13.2869Z"
        fill="#FFCC4D" />
    <path
        d="M2.64976 13.2869C2.64976 13.6708 2.99821 13.8677 3.27198 13.8677C3.64065 13.8677 3.83743 13.65 3.83743 13.3646C3.83931 13.2184 3.80287 13.0743 3.73165 12.9462L2.88621 11.2092C2.85522 11.1366 2.84164 11.0579 2.84654 10.9792C2.84654 10.8231 2.99976 10.6962 3.15998 10.6923C3.30543 10.6885 3.46487 10.8269 3.46487 10.9838C3.46487 11.1746 3.36532 11.26 3.26187 11.26C3.13509 11.26 3.08454 11.2085 3.08454 11.12C3.08454 11.0592 3.11487 11.0331 3.15765 11.0331C3.26654 11.0331 3.2362 11.1777 3.2362 11.1777C3.2506 11.1747 3.26415 11.1686 3.27593 11.1599C3.2877 11.1512 3.2974 11.14 3.30437 11.1272C3.31133 11.1144 3.31538 11.1002 3.31623 11.0857C3.31709 11.0711 3.31473 11.0566 3.30932 11.0431C3.35034 11.0349 3.38736 11.0132 3.41432 10.9815C3.38611 10.9523 3.34943 10.9324 3.30932 10.9246C3.33498 10.8408 3.30076 10.8008 3.22765 10.7831C3.24243 10.8154 3.24243 10.8446 3.23776 10.8723C3.12187 10.84 2.94454 10.8915 2.94454 11.0892C2.94454 11.2854 3.08221 11.45 3.34121 11.41C3.27898 11.44 3.24865 11.4985 3.24243 11.5654C3.28909 11.5477 3.34121 11.5446 3.34121 11.5446C3.31087 11.5969 3.26887 11.6431 3.27043 11.7462C3.31865 11.7246 3.36298 11.6846 3.42443 11.71C3.32798 11.8969 3.44621 12.1562 3.74798 12.2162C3.64566 12.1059 3.58734 11.9627 3.58387 11.8131C3.58387 11.3692 3.70987 11.2931 3.70987 10.9838C3.70791 10.9117 3.6887 10.8411 3.65382 10.7777C3.61894 10.7143 3.56939 10.66 3.50921 10.6192V10.6238C3.54585 10.6166 3.58053 10.6017 3.61095 10.5802C3.64138 10.5587 3.66687 10.5311 3.68576 10.4992C3.48432 10.4431 3.19109 10.4438 3.03476 10.5054C2.96395 10.5157 2.89632 10.5414 2.83675 10.5806C2.77717 10.6199 2.72713 10.6717 2.69021 10.7323C2.65218 10.8187 2.63256 10.9119 2.63256 11.0062C2.63256 11.1004 2.65218 11.1936 2.69021 11.28C2.80998 11.5277 3.37465 12.7115 3.55043 13.0846C3.58776 13.1631 3.61032 13.2462 3.61032 13.3377C3.61032 13.5654 3.39954 13.6446 3.27976 13.6446C3.13587 13.6446 2.98965 13.5362 2.98965 13.4015C2.98965 13.3177 3.03709 13.2654 3.10398 13.2654C3.26654 13.2654 3.25643 13.4015 3.22376 13.4869C3.32409 13.4423 3.38321 13.3615 3.36687 13.2777C3.43044 13.2692 3.48832 13.237 3.52865 13.1877C3.51021 13.1618 3.48607 13.1404 3.45805 13.1251C3.43002 13.1097 3.39885 13.1009 3.36687 13.0992C3.39954 12.9685 3.31087 12.9138 3.22376 12.8831C3.25098 12.9792 3.26887 13.09 3.10398 13.09C2.98343 13.09 2.88854 13.11 2.83332 13.1885C2.82943 13.0854 2.81932 12.6762 2.81932 12.6762C2.81309 12.5238 3.02698 12.5277 3.16309 12.5731C3.11098 12.3969 3.00598 12.3015 2.76098 12.3254C2.79857 12.311 2.83064 12.2852 2.85268 12.2518C2.87472 12.2185 2.88563 12.1791 2.88387 12.1392C2.88387 11.9954 2.76565 11.8362 2.68865 11.7885L2.64976 13.2869ZM2.68865 2.40692C2.68865 2.40692 2.87298 2.25385 2.93521 2.33C3.03554 2.45385 2.62643 3.06846 2.62643 3.28539C2.62643 3.64077 2.86676 3.73693 3.16232 3.78769C3.36143 3.82231 3.68498 3.77385 3.68498 3.77385C3.62276 3.69308 3.58387 3.66923 3.48121 3.66308C3.55194 3.62668 3.61097 3.57145 3.65165 3.50362C3.69233 3.4358 3.71304 3.35808 3.71143 3.27923C3.71143 2.97308 3.58387 2.84693 3.58387 2.50231C3.58387 2.31077 3.74254 2.06693 3.74254 2.06693C3.46254 2.09539 3.32254 2.35154 3.40187 2.55692C3.38056 2.56082 3.35861 2.55957 3.33789 2.55328C3.31717 2.54698 3.2983 2.53583 3.28287 2.52077C3.26265 2.57769 3.29532 2.64385 3.33809 2.70077C3.30309 2.71923 3.27743 2.70769 3.22221 2.69616C3.22765 2.75539 3.26265 2.81693 3.34976 2.87539C3.09698 2.81077 2.94221 2.98462 2.94221 3.16692C2.94221 3.30462 3.03943 3.40231 3.13509 3.40231C3.16621 3.40231 3.21132 3.39 3.23698 3.37077C3.25487 3.40846 3.24554 3.45923 3.22687 3.49692C3.29687 3.47923 3.34043 3.43769 3.30932 3.35231C3.35701 3.35039 3.40201 3.32993 3.43454 3.29539C3.41949 3.27687 3.40024 3.26214 3.37834 3.25238C3.35645 3.24262 3.33253 3.23811 3.30854 3.23923C3.34743 3.15923 3.30387 3.11462 3.24087 3.07923C3.24087 3.07923 3.28132 3.23923 3.17787 3.23923C3.13121 3.23923 3.08921 3.22385 3.08921 3.15693C3.08921 3.09846 3.14132 3.01693 3.26109 3.02231C3.38087 3.02693 3.47809 3.10385 3.47809 3.29385C3.47809 3.46846 3.33576 3.55462 3.14832 3.56077C2.97954 3.56539 2.85198 3.47462 2.85198 3.30231C2.85198 3.07231 3.18798 2.54923 3.18798 2.34385C3.18798 2.19 3.04876 2.10385 2.91187 2.10385C2.73454 2.10385 2.58521 2.27769 2.58521 2.27769L2.68865 2.40692Z"
        fill="#FFCC4D" />
    <path
        d="M2.6887 2.40692C2.6887 2.40692 2.50437 2.25385 2.44214 2.33C2.34103 2.45462 2.75092 3.06923 2.75092 3.28616C2.75092 3.64154 2.51059 3.73769 2.21503 3.78846C2.01592 3.82231 1.69314 3.77385 1.69314 3.77385C1.75381 3.69308 1.79348 3.66923 1.89614 3.66308C1.82521 3.62685 1.76596 3.57168 1.72513 3.50383C1.6843 3.43599 1.66352 3.35817 1.66514 3.27923C1.66514 2.97308 1.7927 2.84693 1.7927 2.50231C1.7927 2.31077 1.63403 2.06693 1.63403 2.06693C1.91403 2.09539 2.05403 2.35154 1.9747 2.55692C1.99613 2.56069 2.01816 2.55938 2.03899 2.5531C2.05981 2.54681 2.07882 2.53573 2.09448 2.52077C2.1147 2.57769 2.08281 2.64385 2.03926 2.70077C2.07348 2.71923 2.09914 2.70769 2.15514 2.69616C2.1497 2.75539 2.11392 2.81693 2.02759 2.87539C2.27959 2.81077 2.43437 2.98462 2.43437 3.16692C2.43437 3.30462 2.33714 3.40231 2.24148 3.40231C2.20518 3.40153 2.16986 3.39059 2.13959 3.37077C2.12248 3.40923 2.13181 3.45923 2.1497 3.49692C2.08048 3.47923 2.03692 3.43769 2.06803 3.35308C2.04439 3.35225 2.02115 3.34679 1.99966 3.33702C1.97816 3.32725 1.95884 3.31336 1.94281 3.29616C1.95761 3.27751 1.97669 3.26263 1.99847 3.25273C2.02024 3.24283 2.04409 3.2382 2.06803 3.23923C2.02914 3.15923 2.0727 3.11462 2.1357 3.07923C2.1357 3.07923 2.09526 3.23923 2.1987 3.23923C2.24537 3.23923 2.28737 3.22385 2.28737 3.15693C2.28737 3.09846 2.23526 3.01693 2.11548 3.02231C1.99492 3.02693 1.8977 3.10385 1.8977 3.29308C1.8977 3.46769 2.04003 3.55385 2.22748 3.56C2.39703 3.56462 2.52459 3.47462 2.52459 3.30154C2.52459 3.07154 2.18859 2.54846 2.18859 2.34308C2.18859 2.18923 2.32781 2.10308 2.4647 2.10308C2.64203 2.10308 2.79137 2.27692 2.79137 2.27692L2.6887 2.40692ZM2.64981 6.56077C2.64981 6.94462 2.99826 7.14231 3.27203 7.14231C3.6407 7.14231 3.83748 6.92385 3.83748 6.63769C3.83748 6.47616 3.80714 6.37462 3.7317 6.21923L2.88626 4.48231C2.85581 4.40982 2.84251 4.33142 2.84737 4.25308C2.84737 4.09769 3.00059 3.97 3.16081 3.96616C3.30626 3.96308 3.4657 4.10077 3.4657 4.25846C3.4657 4.45 3.36614 4.53462 3.2627 4.53462C3.13592 4.53462 3.08537 4.48308 3.08537 4.39462C3.08537 4.33308 3.1157 4.30693 3.15848 4.30693C3.26737 4.30693 3.23703 4.45154 3.23703 4.45154C3.25143 4.44853 3.26498 4.44245 3.27675 4.43373C3.28853 4.425 3.29823 4.41384 3.30519 4.40102C3.31216 4.38821 3.31621 4.37404 3.31706 4.35951C3.31791 4.34499 3.31555 4.33045 3.31014 4.31692C3.3508 4.30836 3.38745 4.28672 3.41437 4.25539C3.38577 4.22623 3.34887 4.20637 3.30859 4.19846C3.33426 4.11539 3.30003 4.07539 3.22692 4.05769C3.2417 4.09 3.2417 4.11923 3.23703 4.14692C3.12114 4.11462 2.94381 4.16616 2.94381 4.36385C2.94381 4.56 3.08148 4.72539 3.34048 4.68462C3.27826 4.71385 3.24792 4.77308 3.2417 4.83923C3.27352 4.82803 3.30677 4.8213 3.34048 4.81923C3.31014 4.87154 3.26814 4.91692 3.2697 5.02077C3.31792 4.99923 3.36226 4.95923 3.4237 4.98462C3.32726 5.17231 3.44548 5.43 3.74726 5.49154C3.64506 5.38092 3.58678 5.23749 3.58314 5.08769C3.58314 4.64308 3.70914 4.56769 3.70914 4.25846C3.707 4.18637 3.68771 4.1158 3.65285 4.05245C3.61798 3.9891 3.56853 3.93477 3.50848 3.89385V3.89923C3.54505 3.89149 3.57962 3.87636 3.61 3.85478C3.64038 3.8332 3.66593 3.80565 3.68503 3.77385C3.48281 3.71846 3.18959 3.71923 3.03248 3.78077C2.96167 3.79077 2.89402 3.81634 2.83453 3.85562C2.77503 3.89489 2.7252 3.94686 2.6887 4.00769C2.65063 4.09408 2.63098 4.1873 2.63098 4.28154C2.63098 4.37578 2.65063 4.469 2.6887 4.55539C2.80848 4.80308 3.37314 5.98692 3.54892 6.35923C3.58718 6.43831 3.60761 6.52466 3.60881 6.61231C3.60881 6.84077 3.39803 6.92 3.27826 6.92C3.13437 6.92 2.98814 6.81154 2.98814 6.67692C2.98814 6.59154 3.03559 6.53923 3.10248 6.53923C3.26503 6.53923 3.25492 6.67539 3.22226 6.76154C3.32259 6.71693 3.3817 6.63693 3.36537 6.55231C3.4289 6.54319 3.48664 6.5108 3.52714 6.46154C3.48748 6.41231 3.43926 6.37462 3.36537 6.37385C3.39803 6.24308 3.30937 6.18692 3.22226 6.15616C3.24948 6.25231 3.26737 6.36385 3.10248 6.36385C2.98192 6.36385 2.88703 6.38385 2.83181 6.46154C2.82792 6.35846 2.81781 5.94923 2.81781 5.94923C2.81159 5.79616 3.02548 5.80077 3.16159 5.84616C3.11103 5.67077 3.00603 5.57539 2.76103 5.59923C2.79862 5.5848 2.83069 5.55908 2.85273 5.52569C2.87477 5.4923 2.88568 5.45292 2.88392 5.41308C2.88392 5.26923 2.7657 5.10923 2.6887 5.06231L2.64981 6.56077Z"
        fill="#FFCC4D" />
</svg>