<svg viewBox="0 0 28 21" fill="none" xmlns="http://www.w3.org/2000/svg">
    <path
        d="M28 17.4231C28 18.2391 27.6722 19.0218 27.0888 19.5988C26.5053 20.1758 25.714 20.5 24.8889 20.5H3.11111C2.28599 20.5 1.49467 20.1758 0.911223 19.5988C0.327777 19.0218 0 18.2391 0 17.4231V3.57692C0 2.76087 0.327777 1.97824 0.911223 1.40121C1.49467 0.824175 2.28599 0.5 3.11111 0.5H24.8889C25.714 0.5 26.5053 0.824175 27.0888 1.40121C27.6722 1.97824 28 2.76087 28 3.57692V17.4231Z"
        fill="#E8112D" />
    <path
        d="M14.368 5.87387C14.3789 5.07002 15.0991 4.51695 15.1295 3.44618C15.6451 4.08771 14.7927 5.29002 15.0953 5.98771C15.2337 5.19618 16.0309 4.76079 16.2316 3.70848C16.6399 4.42233 15.607 5.47771 15.7953 6.2131C16.0566 5.45156 16.9137 5.14618 17.2777 4.13695C17.5678 4.90541 16.3817 5.78771 16.4517 6.5431C16.8297 5.83233 17.7249 5.6631 18.2445 4.72233C18.4101 5.52618 17.0973 6.21387 17.0475 6.97156C17.5336 6.32771 18.4451 6.29848 19.1063 5.45002C19.1428 6.27002 17.7374 6.74541 17.5686 7.48618C18.1504 6.92541 19.0541 7.03771 19.8413 6.30156C19.7487 7.11695 18.2857 7.37002 18.0003 8.07541C18.6645 7.61156 19.5403 7.86233 20.4339 7.25771C20.2138 8.04848 18.7283 8.07233 18.3363 8.72464C19.0643 8.36925 19.8887 8.75233 20.8687 8.2931C20.5257 9.03925 19.0534 8.8331 18.5626 9.41694C19.3388 9.17848 20.094 9.68541 21.1331 9.3831C20.6743 10.0677 19.2556 9.63541 18.6785 10.1362C19.4819 10.0208 20.1477 10.6369 21.221 10.5C20.6618 11.1054 19.3271 10.4593 18.6785 10.8639C19.4913 10.8746 20.0505 11.5877 21.1316 11.6162C20.4829 12.1285 19.268 11.2823 18.5626 11.5831C19.3645 11.72 19.8039 12.5085 20.8687 12.7069C20.1469 13.1108 19.079 12.0893 18.3347 12.2754C19.1047 12.5339 19.415 13.3816 20.4339 13.7416C19.6577 14.03 18.7664 12.8554 18.0003 12.9246C18.7205 13.2985 18.8924 14.1839 19.8413 14.6977C19.0285 14.8616 18.3339 13.5631 17.567 13.5139C18.2188 13.9946 18.2476 14.8962 19.1063 15.55C18.2779 15.5862 17.7949 14.1962 17.0475 14.0293C17.6145 14.6046 17.5001 15.4985 18.2445 16.2769C17.4193 16.1854 17.1641 14.7385 16.4517 14.4562C16.9199 15.1131 16.6656 15.9793 17.2777 16.8631C16.4774 16.6454 16.454 15.1762 15.7953 14.7885C16.1554 15.5085 15.7665 16.3239 16.2316 17.2931C15.4764 16.9539 15.6848 15.4977 15.0953 15.0123C15.3356 15.78 14.8246 16.5269 15.1295 17.5546C14.4373 17.1008 14.8744 15.6977 14.368 15.1269C14.4847 15.9216 13.8617 16.58 14.0001 17.6416C13.388 17.0885 14.0414 15.7685 13.6323 15.1269C13.6214 15.9308 12.9011 16.4839 12.8708 17.5531C12.3536 16.9131 13.2076 15.71 12.9043 15.0123C12.7666 15.8054 11.9686 16.24 11.7687 17.2931C11.3604 16.5793 12.3933 15.5231 12.2043 14.7885C11.9429 15.5485 11.0858 15.8554 10.7218 16.8631C10.4309 16.0954 11.6186 15.2139 11.5486 14.4562C11.1698 15.1685 10.2746 15.3385 9.75581 16.2769C9.59014 15.4731 10.903 14.7862 10.9528 14.0293C10.4667 14.6723 9.55592 14.7008 8.89481 15.55C8.85747 14.7308 10.2637 14.2531 10.4325 13.5139C9.8507 14.0746 8.94614 13.9616 8.15903 14.6977C8.25236 13.8816 9.71614 13.6293 10 12.9246C9.33659 13.3877 8.46081 13.1362 7.56714 13.7416C7.78803 12.95 9.27358 12.9269 9.66559 12.2754C8.93681 12.6316 8.11236 12.2485 7.13314 12.7069C7.47692 11.96 8.9477 12.1662 9.43847 11.5831C8.66225 11.8208 7.90859 11.3154 6.8687 11.6162C7.32603 10.9331 8.74625 11.3639 9.32258 10.8639C8.51836 10.9793 7.85414 10.3623 6.78003 10.5C7.34003 9.89541 8.67392 10.5408 9.32258 10.1362C8.51058 10.1254 7.95136 9.4131 6.8687 9.3831C7.51736 8.87156 8.73303 9.71618 9.43847 9.41618C8.63736 9.28002 8.19792 8.49079 7.13392 8.2931C7.8557 7.88848 8.92281 8.91079 9.66636 8.72387C8.89636 8.46541 8.58758 7.61771 7.56714 7.25771C8.34414 6.97002 9.23625 8.14464 10 8.07541C9.28059 7.70079 9.11025 6.81541 8.15903 6.30233C8.97181 6.13848 9.66714 7.43694 10.4333 7.48618C9.78225 7.00541 9.7527 6.10464 8.89481 5.45079C9.72314 5.41464 10.2046 6.80464 10.9536 6.97156C10.3866 6.39618 10.5001 5.50156 9.75581 4.7231C10.5795 4.81541 10.8361 6.2631 11.5494 6.54387C11.0796 5.88771 11.3339 5.02233 10.7226 4.13771C11.5221 4.35618 11.5463 5.82541 12.2058 6.2131C11.8465 5.49233 12.2338 4.67695 11.7695 3.70925C12.5239 4.04848 12.3155 5.5031 12.9058 5.98848C12.6647 5.22079 13.1773 4.47541 12.8716 3.44695C13.5638 3.89925 13.1267 5.30387 13.633 5.87387C13.5156 5.07848 14.1394 4.42156 14.0009 3.35925C14.6123 3.91233 13.9589 5.23233 14.368 5.87387Z"
        fill="#FFCC4D" />
    <path
        d="M14.0009 14.2738C14.502 14.2737 14.9981 14.176 15.4611 13.9863C15.924 13.7965 16.3446 13.5185 16.6988 13.1679C17.0531 12.8174 17.3341 12.4014 17.5257 11.9435C17.7174 11.4856 17.816 10.9948 17.8159 10.4992C17.8158 10.0036 17.717 9.51291 17.5251 9.05508C17.3333 8.59726 17.0521 8.18129 16.6977 7.83093C16.3433 7.48056 15.9226 7.20267 15.4596 7.01311C14.9966 6.82355 14.5004 6.72603 13.9993 6.72614C12.9873 6.72634 12.0168 7.12414 11.3014 7.83201C10.5859 8.53989 10.1841 9.49986 10.1843 10.5008C10.1845 11.5016 10.5867 12.4614 11.3025 13.169C12.0182 13.8766 12.9889 14.274 14.0009 14.2738Z"
        fill="#E8112D" />
    <path
        d="M13.9999 7.00077C14.9737 7.00077 15.8487 7.41307 16.4577 8.0723C15.5018 8.16769 14.6913 8.39077 13.9999 8.73C13.3085 8.39077 12.4972 8.16769 11.5429 8.0723C11.8543 7.73418 12.2337 7.46419 12.6569 7.27966C13.08 7.09513 13.5375 7.00013 13.9999 7.00077ZM13.7487 8.86384C13.6724 8.90587 13.5972 8.94973 13.5231 8.99538C12.9032 8.67 12.1605 8.46 11.2777 8.39769C11.3179 8.34134 11.3602 8.28644 11.4045 8.23307C12.3215 8.31384 13.0953 8.53077 13.7487 8.86384ZM14.2535 8.86384C14.3305 8.90615 14.4051 8.95 14.4782 8.99538C15.0989 8.67 15.8409 8.46 16.7237 8.39769C16.6837 8.34135 16.6416 8.28644 16.5977 8.23307C15.6799 8.31384 14.9068 8.53077 14.2535 8.86384ZM11.1665 8.56692C11.1312 8.62355 11.0977 8.68127 11.0661 8.74C11.8875 8.75846 12.5766 8.94615 13.1428 9.25538C13.2019 9.21119 13.2621 9.16836 13.3232 9.12692C12.7321 8.80769 12.0173 8.60846 11.1665 8.56692ZM11.0653 11.8423C10.7791 11.3554 10.6733 10.8946 10.6733 10.2915C10.6733 9.79923 10.7807 9.33461 10.9751 8.91692C11.77 8.91154 12.435 9.08307 12.9779 9.38153C12.1745 10.0331 11.5219 10.7962 11.0653 11.8423ZM12.6442 13.2946C12.4949 13.2377 12.3323 13.0769 12.1939 13C12.2725 11.7638 12.8573 10.7469 13.6725 9.89153C13.7331 9.95 13.7915 10.0085 13.8475 10.0708C13.0899 10.9469 12.603 12.0838 12.6442 13.2946ZM16.8357 8.56692C16.8707 8.62307 16.9041 8.68077 16.936 8.74C16.1139 8.75846 15.4248 8.94615 14.8593 9.25538C14.8001 9.21101 14.7396 9.16817 14.6781 9.12692C15.27 8.80769 15.984 8.60846 16.8357 8.56692Z"
        fill="#FFCC4D" />
    <path
        d="M16.9359 11.8431C17.2214 11.3562 17.3279 10.8946 17.3279 10.2915C17.3279 9.79924 17.2198 9.33462 17.0254 8.91693C16.2313 8.91155 15.5655 9.08309 15.0226 9.38155C15.8276 10.0331 16.4809 10.7969 16.9359 11.8431ZM14.0006 10.3523C14.5972 11.3015 14.7115 12.34 14.6788 13.5131C14.4198 13.5762 14.2798 13.5823 14.0006 13.5823C13.7214 13.5823 13.5814 13.5762 13.3224 13.5131C13.2897 12.4 13.4041 11.3377 14.0006 10.3523ZM15.3532 13.2946C15.5017 13.2377 15.6689 13.1246 15.8074 13.0485C15.7288 11.8123 15.1432 10.7469 14.3281 9.89232C14.268 9.95016 14.2099 10.0099 14.1538 10.0715C14.9129 10.9469 15.3944 12.0839 15.3532 13.2946ZM13.4741 9.71616C13.4006 9.65607 13.3245 9.5991 13.2462 9.54539C12.4023 10.2854 11.7754 11.1454 11.4238 12.3108C11.5537 12.4577 11.5514 12.5662 11.7054 12.6877C11.9232 11.4623 12.6286 10.5246 13.4741 9.71616ZM14.5279 9.71616C14.5987 9.65847 14.6788 9.5977 14.7558 9.54539C15.5997 10.2854 16.2243 11.1608 16.5766 12.3269C16.4459 12.4739 16.4273 12.5669 16.2717 12.6885C16.0547 11.4623 15.3734 10.5246 14.5279 9.71616ZM14.0006 9.00309C14.0426 9.0277 14.1865 9.11693 14.2231 9.14078C14.1663 9.17539 14.0364 9.26232 14.0006 9.28616C13.9276 9.23596 13.8535 9.18748 13.7782 9.14078C13.8147 9.11693 13.9586 9.02693 14.0006 9.00309ZM13.5798 9.2777C13.523 9.32001 13.4367 9.38539 13.404 9.41309C13.4857 9.46616 13.5954 9.54847 13.6304 9.57539C13.6732 9.53924 13.7572 9.46539 13.8046 9.43155C13.7319 9.3771 13.657 9.32577 13.5798 9.2777ZM14.4214 9.2777C14.4782 9.32001 14.5645 9.38539 14.5972 9.41309C14.5199 9.46473 14.4445 9.51886 14.3708 9.57539C14.3288 9.53924 14.2441 9.46539 14.1966 9.43155C14.2549 9.38924 14.3778 9.30155 14.4214 9.2777ZM14.0006 9.58462C14.0372 9.61539 14.1453 9.71001 14.1741 9.73847C14.1136 9.79111 14.0557 9.84656 14.0006 9.90462C13.9459 9.84638 13.8883 9.79092 13.8279 9.73847C13.8559 9.71001 13.9648 9.61616 14.0006 9.58462Z"
        fill="#FFCC4D" />
</svg>