<svg viewBox="0 0 28 21" fill="none" xmlns="http://www.w3.org/2000/svg">
    <path d="M0 13.8333H28V17.5C28 19.1569 26.6569 20.5 25 20.5H3C1.34315 20.5 0 19.1569 0 17.5V13.8333Z"
        fill="#1EB53A" />
    <path d="M0 3.5C0 1.84315 1.34315 0.5 3 0.5H25C26.6569 0.5 28 1.84315 28 3.5V7.16666H0V3.5Z" fill="#0099B5" />
    <path d="M0 6.89996H28V14.1H0V6.89996Z" fill="#CE1126" />
    <path d="M0 7.30002H28V13.7H0V7.30002Z" fill="url(#paint0_linear_129_5437)" />
    <path
        d="M5.88011 6.09998C7.27186 6.09998 8.40011 5.02547 8.40011 3.69999C8.40011 2.3745 7.27186 1.29999 5.88011 1.29999C4.48835 1.29999 3.36011 2.3745 3.36011 3.69999C3.36011 5.02547 4.48835 6.09998 5.88011 6.09998Z"
        fill="white" />
    <path
        d="M6.71995 6.09998C8.11171 6.09998 9.23995 5.02547 9.23995 3.69999C9.23995 2.3745 8.11171 1.29999 6.71995 1.29999C5.32819 1.29999 4.19995 2.3745 4.19995 3.69999C4.19995 5.02547 5.32819 6.09998 6.71995 6.09998Z"
        fill="#0099B5" />
    <path d="M11.423 5.14081L11.2634 5.59681L11.507 5.67681" fill="white" />
    <path d="M11.4232 5.14081L11.5828 5.59681L11.3392 5.67681" fill="white" />
    <path d="M11.9023 5.4725L11.3977 5.46885L11.393 5.71422" fill="white" />
    <path d="M11.9023 5.4725L11.4963 5.75798L11.3411 5.56205" fill="white" />
    <path d="M10.9439 5.4725L11.3499 5.75798L11.5051 5.56205" fill="white" />
    <path d="M10.9438 5.4725L11.4485 5.46885L11.4531 5.71422" fill="white" />
    <path d="M11.7195 6.00914L11.5672 5.55089L11.3208 5.62253" fill="white" />
    <path d="M11.7195 6.00914L11.3089 5.72957L11.4566 5.52848" fill="white" />
    <path d="M11.127 6.00914L11.5375 5.72957L11.3898 5.52848" fill="white" />
    <path d="M11.1269 6.00914L11.2792 5.55089L11.5257 5.62253" fill="white" />
    <path d="M11.423 3.22083L11.2634 3.67682L11.507 3.75682" fill="white" />
    <path d="M11.4232 3.22083L11.5828 3.67682L11.3392 3.75682" fill="white" />
    <path d="M11.9023 3.55252L11.3977 3.54887L11.393 3.79424" fill="white" />
    <path d="M11.9023 3.55252L11.4963 3.83799L11.3411 3.64207" fill="white" />
    <path d="M10.9439 3.55252L11.3499 3.83799L11.5051 3.64207" fill="white" />
    <path d="M10.9438 3.55252L11.4485 3.54887L11.4531 3.79424" fill="white" />
    <path d="M11.7195 4.08916L11.5672 3.63091L11.3208 3.70255" fill="white" />
    <path d="M11.7195 4.08915L11.3089 3.80959L11.4566 3.6085" fill="white" />
    <path d="M11.127 4.08915L11.5375 3.80959L11.3898 3.6085" fill="white" />
    <path d="M11.1269 4.08916L11.2792 3.63091L11.5257 3.70255" fill="white" />
    <path d="M11.423 1.30084L11.2634 1.75684L11.507 1.83684" fill="white" />
    <path d="M11.4232 1.30084L11.5828 1.75684L11.3392 1.83684" fill="white" />
    <path d="M11.9023 1.63248L11.3977 1.62883L11.393 1.87419" fill="white" />
    <path d="M11.9023 1.63251L11.4963 1.91798L11.3411 1.72206" fill="white" />
    <path d="M10.9439 1.63251L11.3499 1.91798L11.5051 1.72206" fill="white" />
    <path d="M10.9438 1.63248L11.4485 1.62883L11.4531 1.87419" fill="white" />
    <path d="M11.7195 2.16918L11.5672 1.71092L11.3208 1.78257" fill="white" />
    <path d="M11.7195 2.16917L11.3089 1.8896L11.4566 1.68852" fill="white" />
    <path d="M11.127 2.16917L11.5375 1.8896L11.3898 1.68852" fill="white" />
    <path d="M11.1269 2.16918L11.2792 1.71092L11.5257 1.78257" fill="white" />
    <path d="M13.4389 5.14081L13.2793 5.59681L13.5229 5.67681" fill="white" />
    <path d="M13.4388 5.14081L13.5984 5.59681L13.3548 5.67681" fill="white" />
    <path d="M13.9182 5.4725L13.4135 5.46885L13.4089 5.71422" fill="white" />
    <path d="M13.9182 5.4725L13.5122 5.75798L13.357 5.56205" fill="white" />
    <path d="M12.9597 5.4725L13.3658 5.75798L13.5209 5.56205" fill="white" />
    <path d="M12.9597 5.4725L13.4644 5.46885L13.469 5.71422" fill="white" />
    <path d="M13.7351 6.00914L13.5828 5.55089L13.3364 5.62253" fill="white" />
    <path d="M13.7351 6.00914L13.3245 5.72957L13.4722 5.52848" fill="white" />
    <path d="M13.1426 6.00914L13.5532 5.72957L13.4055 5.52848" fill="white" />
    <path d="M13.1425 6.00914L13.2949 5.55089L13.5413 5.62253" fill="white" />
    <path d="M13.4389 3.22083L13.2793 3.67682L13.5229 3.75682" fill="white" />
    <path d="M13.4388 3.22083L13.5984 3.67682L13.3548 3.75682" fill="white" />
    <path d="M13.9182 3.55252L13.4135 3.54887L13.4089 3.79424" fill="white" />
    <path d="M13.9182 3.55252L13.5122 3.83799L13.357 3.64207" fill="white" />
    <path d="M12.9597 3.55252L13.3658 3.83799L13.5209 3.64207" fill="white" />
    <path d="M12.9597 3.55252L13.4644 3.54887L13.469 3.79424" fill="white" />
    <path d="M13.7351 4.08916L13.5828 3.63091L13.3364 3.70255" fill="white" />
    <path d="M13.7351 4.08915L13.3245 3.80959L13.4722 3.6085" fill="white" />
    <path d="M13.1426 4.08915L13.5532 3.80959L13.4055 3.6085" fill="white" />
    <path d="M13.1425 4.08916L13.2949 3.63091L13.5413 3.70255" fill="white" />
    <path d="M13.4389 1.30084L13.2793 1.75684L13.5229 1.83684" fill="white" />
    <path d="M13.4388 1.30084L13.5984 1.75684L13.3548 1.83684" fill="white" />
    <path d="M13.9182 1.63248L13.4135 1.62883L13.4089 1.87419" fill="white" />
    <path d="M13.9182 1.63251L13.5122 1.91798L13.357 1.72206" fill="white" />
    <path d="M12.9597 1.63251L13.3658 1.91798L13.5209 1.72206" fill="white" />
    <path d="M12.9597 1.63248L13.4644 1.62883L13.469 1.87419" fill="white" />
    <path d="M13.7351 2.16918L13.5828 1.71092L13.3364 1.78257" fill="white" />
    <path d="M13.7351 2.16917L13.3245 1.8896L13.4722 1.68852" fill="white" />
    <path d="M13.1426 2.16917L13.5532 1.8896L13.4055 1.68852" fill="white" />
    <path d="M13.1425 2.16918L13.2949 1.71092L13.5413 1.78257" fill="white" />
    <path d="M15.4553 5.14081L15.2957 5.59681L15.5393 5.67681" fill="white" />
    <path d="M15.4551 5.14081L15.6147 5.59681L15.3711 5.67681" fill="white" />
    <path d="M15.9346 5.4725L15.4299 5.46885L15.4253 5.71422" fill="white" />
    <path d="M15.9346 5.4725L15.5285 5.75798L15.3734 5.56205" fill="white" />
    <path d="M14.9758 5.4725L15.3819 5.75798L15.537 5.56205" fill="white" />
    <path d="M14.9758 5.4725L15.4805 5.46885L15.4851 5.71422" fill="white" />
    <path d="M15.7515 6.00914L15.5992 5.55089L15.3527 5.62253" fill="white" />
    <path d="M15.7514 6.00914L15.3409 5.72957L15.4886 5.52848" fill="white" />
    <path d="M15.159 6.00914L15.5695 5.72957L15.4218 5.52848" fill="white" />
    <path d="M15.1589 6.00914L15.3112 5.55089L15.5577 5.62253" fill="white" />
    <path d="M15.4553 3.22083L15.2957 3.67682L15.5393 3.75682" fill="white" />
    <path d="M15.4551 3.22083L15.6147 3.67682L15.3711 3.75682" fill="white" />
    <path d="M15.9346 3.55252L15.4299 3.54887L15.4253 3.79424" fill="white" />
    <path d="M15.9346 3.55252L15.5285 3.83799L15.3734 3.64207" fill="white" />
    <path d="M14.9758 3.55252L15.3819 3.83799L15.537 3.64207" fill="white" />
    <path d="M14.9758 3.55252L15.4805 3.54887L15.4851 3.79424" fill="white" />
    <path d="M15.7515 4.08916L15.5992 3.63091L15.3527 3.70255" fill="white" />
    <path d="M15.7514 4.08915L15.3409 3.80959L15.4886 3.6085" fill="white" />
    <path d="M15.159 4.08915L15.5695 3.80959L15.4218 3.6085" fill="white" />
    <path d="M15.1591 4.08916L15.3115 3.63091L15.5579 3.70255" fill="white" />
    <path d="M15.4553 1.30084L15.2957 1.75684L15.5393 1.83684" fill="white" />
    <path d="M15.4551 1.30084L15.6147 1.75684L15.3711 1.83684" fill="white" />
    <path d="M15.9346 1.63248L15.4299 1.62883L15.4253 1.87419" fill="white" />
    <path d="M15.9346 1.63251L15.5285 1.91798L15.3734 1.72206" fill="white" />
    <path d="M14.9758 1.63251L15.3819 1.91798L15.537 1.72206" fill="white" />
    <path d="M14.9758 1.63248L15.4805 1.62883L15.4851 1.87419" fill="white" />
    <path d="M15.7515 2.16918L15.5992 1.71092L15.3527 1.78257" fill="white" />
    <path d="M15.7514 2.16917L15.3409 1.8896L15.4886 1.68852" fill="white" />
    <path d="M15.159 2.16917L15.5695 1.8896L15.4218 1.68852" fill="white" />
    <path d="M15.1589 2.16918L15.3112 1.71092L15.5577 1.78257" fill="white" />
    <path d="M7.39105 5.14081L7.23145 5.59681L7.47505 5.67681" fill="white" />
    <path d="M7.39118 5.14081L7.55078 5.59681L7.30718 5.67681" fill="white" />
    <path d="M7.87036 5.4725L7.36568 5.46885L7.36107 5.71422" fill="white" />
    <path d="M7.87036 5.4725L7.46431 5.75798L7.30915 5.56205" fill="white" />
    <path d="M6.91187 5.4725L7.31791 5.75798L7.47308 5.56205" fill="white" />
    <path d="M6.91186 5.4725L7.41655 5.46885L7.42116 5.71422" fill="white" />
    <path d="M7.68729 6.00914L7.53497 5.55089L7.28852 5.62253" fill="white" />
    <path d="M7.68722 6.00914L7.27667 5.72957L7.42438 5.52848" fill="white" />
    <path d="M7.09476 6.00914L7.50531 5.72957L7.35761 5.52848" fill="white" />
    <path d="M7.0947 6.00914L7.24701 5.55089L7.49346 5.62253" fill="white" />
    <path d="M9.40691 5.14081L9.24731 5.59681L9.49091 5.67681" fill="white" />
    <path d="M9.40705 5.14081L9.56665 5.59681L9.32305 5.67681" fill="white" />
    <path d="M9.88623 5.4725L9.38155 5.46885L9.37694 5.71422" fill="white" />
    <path d="M9.88623 5.4725L9.48018 5.75798L9.32502 5.56205" fill="white" />
    <path d="M8.92774 5.4725L9.33378 5.75798L9.48895 5.56205" fill="white" />
    <path d="M8.92773 5.4725L9.43242 5.46885L9.43703 5.71422" fill="white" />
    <path d="M9.7034 6.00914L9.55109 5.55089L9.30464 5.62253" fill="white" />
    <path d="M9.70334 6.00914L9.29279 5.72957L9.44049 5.52848" fill="white" />
    <path d="M9.11087 6.00914L9.52142 5.72957L9.37372 5.52848" fill="white" />
    <path d="M9.11081 6.00914L9.26312 5.55089L9.50957 5.62253" fill="white" />
    <path d="M9.40691 3.22083L9.24731 3.67682L9.49091 3.75682" fill="white" />
    <path d="M9.40705 3.22083L9.56665 3.67682L9.32305 3.75682" fill="white" />
    <path d="M9.88623 3.55252L9.38155 3.54887L9.37694 3.79424" fill="white" />
    <path d="M9.88623 3.55252L9.48018 3.83799L9.32502 3.64207" fill="white" />
    <path d="M8.92774 3.55252L9.33378 3.83799L9.48895 3.64207" fill="white" />
    <path d="M8.92773 3.55252L9.43242 3.54887L9.43703 3.79424" fill="white" />
    <path d="M9.7034 4.08916L9.55109 3.63091L9.30464 3.70255" fill="white" />
    <path d="M9.70334 4.08915L9.29279 3.80959L9.44049 3.6085" fill="white" />
    <path d="M9.11087 4.08915L9.52142 3.80959L9.37372 3.6085" fill="white" />
    <path d="M9.11081 4.08916L9.26312 3.63091L9.50957 3.70255" fill="white" />
    <defs>
        <linearGradient id="paint0_linear_129_5437" x1="11" y1="6.78002" x2="24.965" y2="18.7159"
            gradientUnits="userSpaceOnUse">
            <stop stop-color="#EDF2F2" />
            <stop offset="1" stop-color="white" />
        </linearGradient>
    </defs>
</svg>